%TF.GenerationSoftware,KiCad,Pcbnew,6.0.6-3a73a75311~116~ubuntu20.04.1*%
%TF.CreationDate,2022-07-30T07:06:59+01:00*%
%TF.ProjectId,blanking_board,626c616e-6b69-46e6-975f-626f6172642e,rev?*%
%TF.SameCoordinates,Original*%
%TF.FileFunction,Other,ECO2*%
%FSLAX46Y46*%
G04 Gerber Fmt 4.6, Leading zero omitted, Abs format (unit mm)*
G04 Created by KiCad (PCBNEW 6.0.6-3a73a75311~116~ubuntu20.04.1) date 2022-07-30 07:06:59*
%MOMM*%
%LPD*%
G01*
G04 APERTURE LIST*
%ADD10C,0.150000*%
%ADD11C,0.100000*%
G04 APERTURE END LIST*
D10*
X140976190Y-151302380D02*
X141166666Y-151302380D01*
X141261904Y-151254761D01*
X141309523Y-151207142D01*
X141404761Y-151064285D01*
X141452380Y-150873809D01*
X141452380Y-150492857D01*
X141404761Y-150397619D01*
X141357142Y-150350000D01*
X141261904Y-150302380D01*
X141071428Y-150302380D01*
X140976190Y-150350000D01*
X140928571Y-150397619D01*
X140880952Y-150492857D01*
X140880952Y-150730952D01*
X140928571Y-150826190D01*
X140976190Y-150873809D01*
X141071428Y-150921428D01*
X141261904Y-150921428D01*
X141357142Y-150873809D01*
X141404761Y-150826190D01*
X141452380Y-150730952D01*
X142357142Y-150302380D02*
X141880952Y-150302380D01*
X141833333Y-150778571D01*
X141880952Y-150730952D01*
X141976190Y-150683333D01*
X142214285Y-150683333D01*
X142309523Y-150730952D01*
X142357142Y-150778571D01*
X142404761Y-150873809D01*
X142404761Y-151111904D01*
X142357142Y-151207142D01*
X142309523Y-151254761D01*
X142214285Y-151302380D01*
X141976190Y-151302380D01*
X141880952Y-151254761D01*
X141833333Y-151207142D01*
X142833333Y-151207142D02*
X142880952Y-151254761D01*
X142833333Y-151302380D01*
X142785714Y-151254761D01*
X142833333Y-151207142D01*
X142833333Y-151302380D01*
X143500000Y-150302380D02*
X143595238Y-150302380D01*
X143690476Y-150350000D01*
X143738095Y-150397619D01*
X143785714Y-150492857D01*
X143833333Y-150683333D01*
X143833333Y-150921428D01*
X143785714Y-151111904D01*
X143738095Y-151207142D01*
X143690476Y-151254761D01*
X143595238Y-151302380D01*
X143500000Y-151302380D01*
X143404761Y-151254761D01*
X143357142Y-151207142D01*
X143309523Y-151111904D01*
X143261904Y-150921428D01*
X143261904Y-150683333D01*
X143309523Y-150492857D01*
X143357142Y-150397619D01*
X143404761Y-150350000D01*
X143500000Y-150302380D01*
X144452380Y-150302380D02*
X144547619Y-150302380D01*
X144642857Y-150350000D01*
X144690476Y-150397619D01*
X144738095Y-150492857D01*
X144785714Y-150683333D01*
X144785714Y-150921428D01*
X144738095Y-151111904D01*
X144690476Y-151207142D01*
X144642857Y-151254761D01*
X144547619Y-151302380D01*
X144452380Y-151302380D01*
X144357142Y-151254761D01*
X144309523Y-151207142D01*
X144261904Y-151111904D01*
X144214285Y-150921428D01*
X144214285Y-150683333D01*
X144261904Y-150492857D01*
X144309523Y-150397619D01*
X144357142Y-150350000D01*
X144452380Y-150302380D01*
X145404761Y-150302380D02*
X145500000Y-150302380D01*
X145595238Y-150350000D01*
X145642857Y-150397619D01*
X145690476Y-150492857D01*
X145738095Y-150683333D01*
X145738095Y-150921428D01*
X145690476Y-151111904D01*
X145642857Y-151207142D01*
X145595238Y-151254761D01*
X145500000Y-151302380D01*
X145404761Y-151302380D01*
X145309523Y-151254761D01*
X145261904Y-151207142D01*
X145214285Y-151111904D01*
X145166666Y-150921428D01*
X145166666Y-150683333D01*
X145214285Y-150492857D01*
X145261904Y-150397619D01*
X145309523Y-150350000D01*
X145404761Y-150302380D01*
X146357142Y-150302380D02*
X146452380Y-150302380D01*
X146547619Y-150350000D01*
X146595238Y-150397619D01*
X146642857Y-150492857D01*
X146690476Y-150683333D01*
X146690476Y-150921428D01*
X146642857Y-151111904D01*
X146595238Y-151207142D01*
X146547619Y-151254761D01*
X146452380Y-151302380D01*
X146357142Y-151302380D01*
X146261904Y-151254761D01*
X146214285Y-151207142D01*
X146166666Y-151111904D01*
X146119047Y-150921428D01*
X146119047Y-150683333D01*
X146166666Y-150492857D01*
X146214285Y-150397619D01*
X146261904Y-150350000D01*
X146357142Y-150302380D01*
X147880952Y-151302380D02*
X147880952Y-150635714D01*
X147880952Y-150730952D02*
X147928571Y-150683333D01*
X148023809Y-150635714D01*
X148166666Y-150635714D01*
X148261904Y-150683333D01*
X148309523Y-150778571D01*
X148309523Y-151302380D01*
X148309523Y-150778571D02*
X148357142Y-150683333D01*
X148452380Y-150635714D01*
X148595238Y-150635714D01*
X148690476Y-150683333D01*
X148738095Y-150778571D01*
X148738095Y-151302380D01*
X149214285Y-151302380D02*
X149214285Y-150635714D01*
X149214285Y-150730952D02*
X149261904Y-150683333D01*
X149357142Y-150635714D01*
X149500000Y-150635714D01*
X149595238Y-150683333D01*
X149642857Y-150778571D01*
X149642857Y-151302380D01*
X149642857Y-150778571D02*
X149690476Y-150683333D01*
X149785714Y-150635714D01*
X149928571Y-150635714D01*
X150023809Y-150683333D01*
X150071428Y-150778571D01*
X150071428Y-151302380D01*
D11*
X98000000Y-135500000D02*
X98000000Y-152586420D01*
X193000000Y-135500000D02*
X193000000Y-152586420D01*
X98000000Y-152000000D02*
X193000000Y-152000000D01*
X98000000Y-152000000D02*
X193000000Y-152000000D01*
X98000000Y-152000000D02*
X99126504Y-152586421D01*
X98000000Y-152000000D02*
X99126504Y-151413579D01*
X193000000Y-152000000D02*
X191873496Y-151413579D01*
X193000000Y-152000000D02*
X191873496Y-152586421D01*
D10*
X204730952Y-92428571D02*
X204683333Y-92523809D01*
X204635714Y-92571428D01*
X204540476Y-92619047D01*
X204492857Y-92619047D01*
X204397619Y-92571428D01*
X204350000Y-92523809D01*
X204302380Y-92428571D01*
X204302380Y-92238095D01*
X204350000Y-92142857D01*
X204397619Y-92095238D01*
X204492857Y-92047619D01*
X204540476Y-92047619D01*
X204635714Y-92095238D01*
X204683333Y-92142857D01*
X204730952Y-92238095D01*
X204730952Y-92428571D01*
X204778571Y-92523809D01*
X204826190Y-92571428D01*
X204921428Y-92619047D01*
X205111904Y-92619047D01*
X205207142Y-92571428D01*
X205254761Y-92523809D01*
X205302380Y-92428571D01*
X205302380Y-92238095D01*
X205254761Y-92142857D01*
X205207142Y-92095238D01*
X205111904Y-92047619D01*
X204921428Y-92047619D01*
X204826190Y-92095238D01*
X204778571Y-92142857D01*
X204730952Y-92238095D01*
X204397619Y-91666666D02*
X204350000Y-91619047D01*
X204302380Y-91523809D01*
X204302380Y-91285714D01*
X204350000Y-91190476D01*
X204397619Y-91142857D01*
X204492857Y-91095238D01*
X204588095Y-91095238D01*
X204730952Y-91142857D01*
X205302380Y-91714285D01*
X205302380Y-91095238D01*
X205207142Y-90666666D02*
X205254761Y-90619047D01*
X205302380Y-90666666D01*
X205254761Y-90714285D01*
X205207142Y-90666666D01*
X205302380Y-90666666D01*
X204302380Y-90000000D02*
X204302380Y-89904761D01*
X204350000Y-89809523D01*
X204397619Y-89761904D01*
X204492857Y-89714285D01*
X204683333Y-89666666D01*
X204921428Y-89666666D01*
X205111904Y-89714285D01*
X205207142Y-89761904D01*
X205254761Y-89809523D01*
X205302380Y-89904761D01*
X205302380Y-90000000D01*
X205254761Y-90095238D01*
X205207142Y-90142857D01*
X205111904Y-90190476D01*
X204921428Y-90238095D01*
X204683333Y-90238095D01*
X204492857Y-90190476D01*
X204397619Y-90142857D01*
X204350000Y-90095238D01*
X204302380Y-90000000D01*
X204302380Y-89047619D02*
X204302380Y-88952380D01*
X204350000Y-88857142D01*
X204397619Y-88809523D01*
X204492857Y-88761904D01*
X204683333Y-88714285D01*
X204921428Y-88714285D01*
X205111904Y-88761904D01*
X205207142Y-88809523D01*
X205254761Y-88857142D01*
X205302380Y-88952380D01*
X205302380Y-89047619D01*
X205254761Y-89142857D01*
X205207142Y-89190476D01*
X205111904Y-89238095D01*
X204921428Y-89285714D01*
X204683333Y-89285714D01*
X204492857Y-89238095D01*
X204397619Y-89190476D01*
X204350000Y-89142857D01*
X204302380Y-89047619D01*
X204302380Y-88095238D02*
X204302380Y-88000000D01*
X204350000Y-87904761D01*
X204397619Y-87857142D01*
X204492857Y-87809523D01*
X204683333Y-87761904D01*
X204921428Y-87761904D01*
X205111904Y-87809523D01*
X205207142Y-87857142D01*
X205254761Y-87904761D01*
X205302380Y-88000000D01*
X205302380Y-88095238D01*
X205254761Y-88190476D01*
X205207142Y-88238095D01*
X205111904Y-88285714D01*
X204921428Y-88333333D01*
X204683333Y-88333333D01*
X204492857Y-88285714D01*
X204397619Y-88238095D01*
X204350000Y-88190476D01*
X204302380Y-88095238D01*
X204302380Y-87142857D02*
X204302380Y-87047619D01*
X204350000Y-86952380D01*
X204397619Y-86904761D01*
X204492857Y-86857142D01*
X204683333Y-86809523D01*
X204921428Y-86809523D01*
X205111904Y-86857142D01*
X205207142Y-86904761D01*
X205254761Y-86952380D01*
X205302380Y-87047619D01*
X205302380Y-87142857D01*
X205254761Y-87238095D01*
X205207142Y-87285714D01*
X205111904Y-87333333D01*
X204921428Y-87380952D01*
X204683333Y-87380952D01*
X204492857Y-87333333D01*
X204397619Y-87285714D01*
X204350000Y-87238095D01*
X204302380Y-87142857D01*
X205302380Y-85619047D02*
X204635714Y-85619047D01*
X204730952Y-85619047D02*
X204683333Y-85571428D01*
X204635714Y-85476190D01*
X204635714Y-85333333D01*
X204683333Y-85238095D01*
X204778571Y-85190476D01*
X205302380Y-85190476D01*
X204778571Y-85190476D02*
X204683333Y-85142857D01*
X204635714Y-85047619D01*
X204635714Y-84904761D01*
X204683333Y-84809523D01*
X204778571Y-84761904D01*
X205302380Y-84761904D01*
X205302380Y-84285714D02*
X204635714Y-84285714D01*
X204730952Y-84285714D02*
X204683333Y-84238095D01*
X204635714Y-84142857D01*
X204635714Y-84000000D01*
X204683333Y-83904761D01*
X204778571Y-83857142D01*
X205302380Y-83857142D01*
X204778571Y-83857142D02*
X204683333Y-83809523D01*
X204635714Y-83714285D01*
X204635714Y-83571428D01*
X204683333Y-83476190D01*
X204778571Y-83428571D01*
X205302380Y-83428571D01*
D11*
X195500000Y-47000000D02*
X206586420Y-47000000D01*
X195500000Y-129000000D02*
X206586420Y-129000000D01*
X206000000Y-47000000D02*
X206000000Y-129000000D01*
X206000000Y-47000000D02*
X206000000Y-129000000D01*
X206000000Y-47000000D02*
X205413579Y-48126504D01*
X206000000Y-47000000D02*
X206586421Y-48126504D01*
X206000000Y-129000000D02*
X206586421Y-127873496D01*
X206000000Y-129000000D02*
X205413579Y-127873496D01*
M02*
