M48
; DRILL file {KiCad 6.0.6-3a73a75311~116~ubuntu20.04.1} date Tue 26 Jul 2022 07:47:04 BST
; FORMAT={-:-/ absolute / metric / decimal}
; #@! TF.CreationDate,2022-07-26T07:47:04+01:00
; #@! TF.GenerationSoftware,Kicad,Pcbnew,6.0.6-3a73a75311~116~ubuntu20.04.1
; #@! TF.FileFunction,Plated,1,2,PTH
FMAT,2
METRIC
; #@! TA.AperFunction,Plated,PTH,ViaDrill
T1C0.400
; #@! TA.AperFunction,Plated,PTH,ComponentDrill
T2C0.800
; #@! TA.AperFunction,Plated,PTH,ComponentDrill
T3C0.950
; #@! TA.AperFunction,Plated,PTH,ComponentDrill
T4C1.000
; #@! TA.AperFunction,Plated,PTH,ComponentDrill
T5C1.200
%
G90
G05
T1
X104.0Y-66.0
X105.0Y-66.0
X107.0Y-51.0
X108.0Y-59.0
X109.0Y-96.0
X109.0Y-99.0
X110.0Y-83.0
X113.0Y-86.0
X114.0Y-96.0
X114.0Y-99.0
X116.0Y-88.0
X116.0Y-93.0
X117.0Y-83.0
X135.38Y-72.62
X136.0Y-87.0
X143.0Y-81.0
X153.899Y-66.899
X155.101Y-68.101
X159.0Y-60.0
X160.101Y-59.899
X161.0Y-76.0
X162.0Y-63.0
X163.0Y-51.0
X163.0Y-62.0
T2
X119.0Y-65.0
X119.0Y-67.54
X119.0Y-70.08
X119.0Y-72.62
X119.0Y-75.16
X119.0Y-77.7
X119.0Y-80.24
X119.0Y-92.0
X119.0Y-94.54
X119.0Y-97.08
X119.0Y-99.62
X119.0Y-102.16
X119.0Y-104.7
X119.0Y-107.24
X126.62Y-65.0
X126.62Y-67.54
X126.62Y-70.08
X126.62Y-72.62
X126.62Y-75.16
X126.62Y-77.7
X126.62Y-80.24
X126.62Y-92.0
X126.62Y-94.54
X126.62Y-97.08
X126.62Y-99.62
X126.62Y-102.16
X126.62Y-104.7
X126.62Y-107.24
X167.0Y-65.0
X167.0Y-67.54
X167.0Y-70.08
X167.0Y-72.62
X167.0Y-75.16
X167.0Y-77.7
X167.0Y-80.24
X167.0Y-95.0
X167.0Y-97.54
X167.0Y-100.08
X167.0Y-102.62
X167.0Y-105.16
X167.0Y-107.7
X167.0Y-110.24
X174.62Y-65.0
X174.62Y-67.54
X174.62Y-70.08
X174.62Y-72.62
X174.62Y-75.16
X174.62Y-77.7
X174.62Y-80.24
X174.62Y-95.0
X174.62Y-97.54
X174.62Y-100.08
X174.62Y-102.62
X174.62Y-105.16
X174.62Y-107.7
X174.62Y-110.24
T3
X107.0Y-62.0
X107.0Y-64.5
X107.0Y-67.0
X107.0Y-69.5
X107.0Y-79.0
X107.0Y-81.5
X107.0Y-84.0
X107.0Y-86.5
X107.0Y-96.0
X107.0Y-98.5
X107.0Y-101.0
X107.0Y-103.5
X107.0Y-111.0
X107.0Y-113.5
X107.0Y-116.0
X107.0Y-118.5
X185.0Y-62.5
X185.0Y-65.0
X185.0Y-67.5
X185.0Y-70.0
X185.0Y-79.5
X185.0Y-82.0
X185.0Y-84.5
X185.0Y-87.0
X185.0Y-109.5
X185.0Y-112.0
X185.0Y-114.5
X185.0Y-117.0
T4
X112.0Y-53.46
X112.0Y-56.0
X114.54Y-53.46
X114.54Y-56.0
X117.08Y-53.46
X117.08Y-56.0
X119.62Y-53.46
X119.62Y-56.0
X122.16Y-53.46
X122.16Y-56.0
X124.7Y-53.46
X124.7Y-56.0
X127.24Y-53.46
X127.24Y-56.0
X129.78Y-53.46
X129.78Y-56.0
X132.32Y-53.46
X132.32Y-56.0
X134.86Y-53.46
X134.86Y-56.0
X137.4Y-53.46
X137.4Y-56.0
X137.5Y-120.0
X139.94Y-53.46
X139.94Y-56.0
X140.0Y-120.0
X142.48Y-53.46
X142.48Y-56.0
X146.0Y-83.0
X146.0Y-85.54
X146.0Y-88.08
X146.0Y-98.0
X146.0Y-100.54
X146.0Y-103.08
X150.0Y-53.46
X150.0Y-56.0
X151.5Y-120.0
X152.54Y-53.46
X152.54Y-56.0
X154.0Y-120.0
X155.08Y-53.46
X155.08Y-56.0
X157.62Y-53.46
X157.62Y-56.0
X160.16Y-53.46
X160.16Y-56.0
X162.7Y-53.46
X162.7Y-56.0
X165.24Y-53.46
X165.24Y-56.0
X167.78Y-53.46
X167.78Y-56.0
X170.32Y-53.46
X170.32Y-56.0
X172.86Y-53.46
X172.86Y-56.0
X175.4Y-53.46
X175.4Y-56.0
X177.94Y-53.46
X177.94Y-56.0
X180.48Y-53.46
X180.48Y-56.0
X185.0Y-96.5
X185.0Y-99.0
T5
X156.0Y-81.76
X156.0Y-97.0
T0
M30
