%TF.GenerationSoftware,KiCad,Pcbnew,6.0.6-3a73a75311~116~ubuntu20.04.1*%
%TF.CreationDate,2022-07-26T07:47:00+01:00*%
%TF.ProjectId,blanking_board,626c616e-6b69-46e6-975f-626f6172642e,rev?*%
%TF.SameCoordinates,Original*%
%TF.FileFunction,Copper,L1,Top*%
%TF.FilePolarity,Positive*%
%FSLAX46Y46*%
G04 Gerber Fmt 4.6, Leading zero omitted, Abs format (unit mm)*
G04 Created by KiCad (PCBNEW 6.0.6-3a73a75311~116~ubuntu20.04.1) date 2022-07-26 07:47:00*
%MOMM*%
%LPD*%
G01*
G04 APERTURE LIST*
G04 Aperture macros list*
%AMRoundRect*
0 Rectangle with rounded corners*
0 $1 Rounding radius*
0 $2 $3 $4 $5 $6 $7 $8 $9 X,Y pos of 4 corners*
0 Add a 4 corners polygon primitive as box body*
4,1,4,$2,$3,$4,$5,$6,$7,$8,$9,$2,$3,0*
0 Add four circle primitives for the rounded corners*
1,1,$1+$1,$2,$3*
1,1,$1+$1,$4,$5*
1,1,$1+$1,$6,$7*
1,1,$1+$1,$8,$9*
0 Add four rect primitives between the rounded corners*
20,1,$1+$1,$2,$3,$4,$5,0*
20,1,$1+$1,$4,$5,$6,$7,0*
20,1,$1+$1,$6,$7,$8,$9,0*
20,1,$1+$1,$8,$9,$2,$3,0*%
G04 Aperture macros list end*
%TA.AperFunction,ComponentPad*%
%ADD10R,1.700000X1.700000*%
%TD*%
%TA.AperFunction,ComponentPad*%
%ADD11O,1.700000X1.700000*%
%TD*%
%TA.AperFunction,ComponentPad*%
%ADD12RoundRect,0.250000X-0.725000X0.600000X-0.725000X-0.600000X0.725000X-0.600000X0.725000X0.600000X0*%
%TD*%
%TA.AperFunction,ComponentPad*%
%ADD13O,1.950000X1.700000*%
%TD*%
%TA.AperFunction,ComponentPad*%
%ADD14O,2.400000X1.600000*%
%TD*%
%TA.AperFunction,ComponentPad*%
%ADD15R,2.400000X1.600000*%
%TD*%
%TA.AperFunction,ComponentPad*%
%ADD16C,2.400000*%
%TD*%
%TA.AperFunction,ComponentPad*%
%ADD17O,2.400000X2.400000*%
%TD*%
%TA.AperFunction,ComponentPad*%
%ADD18RoundRect,0.250000X0.725000X-0.600000X0.725000X0.600000X-0.725000X0.600000X-0.725000X-0.600000X0*%
%TD*%
%TA.AperFunction,ComponentPad*%
%ADD19RoundRect,0.250000X0.750000X-0.600000X0.750000X0.600000X-0.750000X0.600000X-0.750000X-0.600000X0*%
%TD*%
%TA.AperFunction,ComponentPad*%
%ADD20O,2.000000X1.700000*%
%TD*%
%TA.AperFunction,ComponentPad*%
%ADD21O,1.700000X2.000000*%
%TD*%
%TA.AperFunction,ComponentPad*%
%ADD22RoundRect,0.250000X0.600000X0.750000X-0.600000X0.750000X-0.600000X-0.750000X0.600000X-0.750000X0*%
%TD*%
%TA.AperFunction,ViaPad*%
%ADD23C,0.800000*%
%TD*%
%TA.AperFunction,Conductor*%
%ADD24C,0.500000*%
%TD*%
G04 APERTURE END LIST*
D10*
%TO.P,JP2,1,1*%
%TO.N,GND*%
X146000000Y-98000000D03*
D11*
%TO.P,JP2,2,2*%
%TO.N,Net-(JP1-Pad3)*%
X146000000Y-100540000D03*
%TO.P,JP2,3,3*%
%TO.N,Net-(R1-Pad1)*%
X146000000Y-103080000D03*
%TD*%
D12*
%TO.P,J6,1*%
%TO.N,Net-(J6-Pad1)*%
X107000000Y-111000000D03*
D13*
%TO.P,J6,2*%
%TO.N,Net-(J6-Pad2)*%
X107000000Y-113500000D03*
%TO.P,J6,3*%
%TO.N,+5V*%
X107000000Y-116000000D03*
%TO.P,J6,4*%
%TO.N,GND*%
X107000000Y-118500000D03*
%TD*%
D14*
%TO.P,U2,14,VCC*%
%TO.N,+5V*%
X174620000Y-65000000D03*
%TO.P,U2,7,GND*%
%TO.N,GND*%
X167000000Y-80240000D03*
%TO.P,U2,13*%
%TO.N,synch*%
X174620000Y-67540000D03*
%TO.P,U2,6*%
%TO.N,p1_chan2*%
X167000000Y-77700000D03*
%TO.P,U2,12*%
%TO.N,Net-(J1-Pad2)*%
X174620000Y-70080000D03*
%TO.P,U2,5*%
%TO.N,synch*%
X167000000Y-75160000D03*
%TO.P,U2,11*%
%TO.N,p1_chan4*%
X174620000Y-72620000D03*
%TO.P,U2,4*%
%TO.N,Net-(J2-Pad2)*%
X167000000Y-72620000D03*
%TO.P,U2,10*%
%TO.N,synch*%
X174620000Y-75160000D03*
%TO.P,U2,3*%
%TO.N,p1_chan1*%
X167000000Y-70080000D03*
%TO.P,U2,9*%
%TO.N,Net-(J1-Pad1)*%
X174620000Y-77700000D03*
%TO.P,U2,2*%
%TO.N,synch*%
X167000000Y-67540000D03*
%TO.P,U2,8*%
%TO.N,p1_chan3*%
X174620000Y-80240000D03*
D15*
%TO.P,U2,1*%
%TO.N,Net-(J2-Pad1)*%
X167000000Y-65000000D03*
%TD*%
D11*
%TO.P,J11,26*%
%TO.N,N/C*%
X142480000Y-53460000D03*
%TO.P,J11,25,P25*%
%TO.N,GND*%
X142480000Y-56000000D03*
%TO.P,J11,24,P24*%
X139940000Y-53460000D03*
%TO.P,J11,23,P23*%
X139940000Y-56000000D03*
%TO.P,J11,22,P22*%
X137400000Y-53460000D03*
%TO.P,J11,21,P21*%
X137400000Y-56000000D03*
%TO.P,J11,20,P20*%
X134860000Y-53460000D03*
%TO.P,J11,19,P19*%
X134860000Y-56000000D03*
%TO.P,J11,18,P18*%
X132320000Y-53460000D03*
%TO.P,J11,17,P17*%
X132320000Y-56000000D03*
%TO.P,J11,16,P16*%
X129780000Y-53460000D03*
%TO.P,J11,15,P15*%
X129780000Y-56000000D03*
%TO.P,J11,14,P14*%
X127240000Y-53460000D03*
%TO.P,J11,13,13*%
X127240000Y-56000000D03*
%TO.P,J11,12,12*%
%TO.N,p2_chan6*%
X124700000Y-53460000D03*
%TO.P,J11,11,11*%
%TO.N,p2_chan5*%
X124700000Y-56000000D03*
%TO.P,J11,10,10*%
%TO.N,p2_chan4*%
X122160000Y-53460000D03*
%TO.P,J11,9,9*%
%TO.N,p2_chan3*%
X122160000Y-56000000D03*
%TO.P,J11,8,8*%
%TO.N,p2_chan2*%
X119620000Y-53460000D03*
%TO.P,J11,7,7*%
%TO.N,p2_chan1*%
X119620000Y-56000000D03*
%TO.P,J11,6,6*%
%TO.N,unconnected-(J11-Pad6)*%
X117080000Y-53460000D03*
%TO.P,J11,5,5*%
%TO.N,unconnected-(J11-Pad5)*%
X117080000Y-56000000D03*
%TO.P,J11,4,4*%
%TO.N,unconnected-(J11-Pad4)*%
X114540000Y-53460000D03*
%TO.P,J11,3,3*%
%TO.N,unconnected-(J11-Pad3)*%
X114540000Y-56000000D03*
%TO.P,J11,2,2*%
%TO.N,unconnected-(J11-Pad2)*%
X112000000Y-53460000D03*
D10*
%TO.P,J11,1,1*%
%TO.N,unconnected-(J11-Pad1)*%
X112000000Y-56000000D03*
%TD*%
%TO.P,J12,1,1*%
%TO.N,unconnected-(J12-Pad1)*%
X150000000Y-56000000D03*
D11*
%TO.P,J12,2,2*%
%TO.N,unconnected-(J12-Pad2)*%
X150000000Y-53460000D03*
%TO.P,J12,3,3*%
%TO.N,unconnected-(J12-Pad3)*%
X152540000Y-56000000D03*
%TO.P,J12,4,4*%
%TO.N,unconnected-(J12-Pad4)*%
X152540000Y-53460000D03*
%TO.P,J12,5,5*%
%TO.N,unconnected-(J12-Pad5)*%
X155080000Y-56000000D03*
%TO.P,J12,6,6*%
%TO.N,unconnected-(J12-Pad6)*%
X155080000Y-53460000D03*
%TO.P,J12,7,7*%
%TO.N,p1_chan1*%
X157620000Y-56000000D03*
%TO.P,J12,8,8*%
%TO.N,p1_chan2*%
X157620000Y-53460000D03*
%TO.P,J12,9,9*%
%TO.N,p1_chan3*%
X160160000Y-56000000D03*
%TO.P,J12,10,10*%
%TO.N,p1_chan4*%
X160160000Y-53460000D03*
%TO.P,J12,11,11*%
%TO.N,p1_chan5*%
X162700000Y-56000000D03*
%TO.P,J12,12,12*%
%TO.N,p1_chan6*%
X162700000Y-53460000D03*
%TO.P,J12,13,13*%
%TO.N,GND*%
X165240000Y-56000000D03*
%TO.P,J12,14,P14*%
X165240000Y-53460000D03*
%TO.P,J12,15,P15*%
X167780000Y-56000000D03*
%TO.P,J12,16,P16*%
X167780000Y-53460000D03*
%TO.P,J12,17,P17*%
X170320000Y-56000000D03*
%TO.P,J12,18,P18*%
X170320000Y-53460000D03*
%TO.P,J12,19,P19*%
X172860000Y-56000000D03*
%TO.P,J12,20,P20*%
X172860000Y-53460000D03*
%TO.P,J12,21,P21*%
X175400000Y-56000000D03*
%TO.P,J12,22,P22*%
X175400000Y-53460000D03*
%TO.P,J12,23,P23*%
X177940000Y-56000000D03*
%TO.P,J12,24,P24*%
X177940000Y-53460000D03*
%TO.P,J12,25,P25*%
X180480000Y-56000000D03*
%TO.P,J12,26*%
%TO.N,N/C*%
X180480000Y-53460000D03*
%TD*%
D10*
%TO.P,JP1,1,1*%
%TO.N,Net-(JP1-Pad1)*%
X146000000Y-83000000D03*
D11*
%TO.P,JP1,2,2*%
%TO.N,synch*%
X146000000Y-85540000D03*
%TO.P,JP1,3,3*%
%TO.N,Net-(JP1-Pad3)*%
X146000000Y-88080000D03*
%TD*%
D16*
%TO.P,R1,1*%
%TO.N,Net-(R1-Pad1)*%
X156000000Y-97000000D03*
D17*
%TO.P,R1,2*%
%TO.N,Net-(J4-Pad1)*%
X156000000Y-81760000D03*
%TD*%
D14*
%TO.P,U1,14,VCC*%
%TO.N,+5V*%
X174620000Y-95000000D03*
%TO.P,U1,7,GND*%
%TO.N,GND*%
X167000000Y-110240000D03*
%TO.P,U1,13*%
%TO.N,N/C*%
X174620000Y-97540000D03*
%TO.P,U1,6*%
X167000000Y-107700000D03*
%TO.P,U1,12*%
X174620000Y-100080000D03*
%TO.P,U1,5*%
X167000000Y-105160000D03*
%TO.P,U1,11*%
X174620000Y-102620000D03*
%TO.P,U1,4*%
X167000000Y-102620000D03*
%TO.P,U1,10*%
X174620000Y-105160000D03*
%TO.P,U1,3*%
X167000000Y-100080000D03*
%TO.P,U1,9*%
X174620000Y-107700000D03*
%TO.P,U1,2*%
%TO.N,Net-(JP1-Pad1)*%
X167000000Y-97540000D03*
%TO.P,U1,8*%
%TO.N,N/C*%
X174620000Y-110240000D03*
D15*
%TO.P,U1,1*%
%TO.N,Net-(JP1-Pad3)*%
X167000000Y-95000000D03*
%TD*%
%TO.P,U3,1*%
%TO.N,Net-(J3-Pad1)*%
X119000000Y-92000000D03*
D14*
%TO.P,U3,8*%
%TO.N,p2_chan1*%
X126620000Y-107240000D03*
%TO.P,U3,2*%
%TO.N,synch*%
X119000000Y-94540000D03*
%TO.P,U3,9*%
%TO.N,Net-(J6-Pad1)*%
X126620000Y-104700000D03*
%TO.P,U3,3*%
%TO.N,p1_chan5*%
X119000000Y-97080000D03*
%TO.P,U3,10*%
%TO.N,synch*%
X126620000Y-102160000D03*
%TO.P,U3,4*%
%TO.N,Net-(J3-Pad2)*%
X119000000Y-99620000D03*
%TO.P,U3,11*%
%TO.N,p2_chan2*%
X126620000Y-99620000D03*
%TO.P,U3,5*%
%TO.N,synch*%
X119000000Y-102160000D03*
%TO.P,U3,12*%
%TO.N,Net-(J6-Pad2)*%
X126620000Y-97080000D03*
%TO.P,U3,6*%
%TO.N,p1_chan6*%
X119000000Y-104700000D03*
%TO.P,U3,13*%
%TO.N,synch*%
X126620000Y-94540000D03*
%TO.P,U3,7,GND*%
%TO.N,GND*%
X119000000Y-107240000D03*
%TO.P,U3,14,VCC*%
%TO.N,+5V*%
X126620000Y-92000000D03*
%TD*%
D15*
%TO.P,U4,1*%
%TO.N,Net-(J5-Pad1)*%
X119000000Y-65000000D03*
D14*
%TO.P,U4,8*%
%TO.N,p2_chan5*%
X126620000Y-80240000D03*
%TO.P,U4,2*%
%TO.N,synch*%
X119000000Y-67540000D03*
%TO.P,U4,9*%
%TO.N,Net-(J7-Pad1)*%
X126620000Y-77700000D03*
%TO.P,U4,3*%
%TO.N,p2_chan3*%
X119000000Y-70080000D03*
%TO.P,U4,10*%
%TO.N,synch*%
X126620000Y-75160000D03*
%TO.P,U4,4*%
%TO.N,Net-(J5-Pad2)*%
X119000000Y-72620000D03*
%TO.P,U4,11*%
%TO.N,p2_chan6*%
X126620000Y-72620000D03*
%TO.P,U4,5*%
%TO.N,synch*%
X119000000Y-75160000D03*
%TO.P,U4,12*%
%TO.N,Net-(J7-Pad2)*%
X126620000Y-70080000D03*
%TO.P,U4,6*%
%TO.N,p2_chan4*%
X119000000Y-77700000D03*
%TO.P,U4,13*%
%TO.N,synch*%
X126620000Y-67540000D03*
%TO.P,U4,7,GND*%
%TO.N,GND*%
X119000000Y-80240000D03*
%TO.P,U4,14,VCC*%
%TO.N,+5V*%
X126620000Y-65000000D03*
%TD*%
D13*
%TO.P,J1,4*%
%TO.N,GND*%
X185000000Y-62500000D03*
%TO.P,J1,3*%
%TO.N,+5V*%
X185000000Y-65000000D03*
%TO.P,J1,2*%
%TO.N,Net-(J1-Pad2)*%
X185000000Y-67500000D03*
D18*
%TO.P,J1,1*%
%TO.N,Net-(J1-Pad1)*%
X185000000Y-70000000D03*
%TD*%
%TO.P,J2,1*%
%TO.N,Net-(J2-Pad1)*%
X185000000Y-87000000D03*
D13*
%TO.P,J2,2*%
%TO.N,Net-(J2-Pad2)*%
X185000000Y-84500000D03*
%TO.P,J2,3*%
%TO.N,+5V*%
X185000000Y-82000000D03*
%TO.P,J2,4*%
%TO.N,GND*%
X185000000Y-79500000D03*
%TD*%
D12*
%TO.P,J3,1*%
%TO.N,Net-(J3-Pad1)*%
X107000000Y-96000000D03*
D13*
%TO.P,J3,2*%
%TO.N,Net-(J3-Pad2)*%
X107000000Y-98500000D03*
%TO.P,J3,3*%
%TO.N,+5V*%
X107000000Y-101000000D03*
%TO.P,J3,4*%
%TO.N,GND*%
X107000000Y-103500000D03*
%TD*%
D19*
%TO.P,J4,1*%
%TO.N,Net-(J4-Pad1)*%
X185000000Y-99000000D03*
D20*
%TO.P,J4,2*%
%TO.N,GND*%
X185000000Y-96500000D03*
%TD*%
D12*
%TO.P,J5,1*%
%TO.N,Net-(J5-Pad1)*%
X107000000Y-62000000D03*
D13*
%TO.P,J5,2*%
%TO.N,Net-(J5-Pad2)*%
X107000000Y-64500000D03*
%TO.P,J5,3*%
%TO.N,+5V*%
X107000000Y-67000000D03*
%TO.P,J5,4*%
%TO.N,GND*%
X107000000Y-69500000D03*
%TD*%
%TO.P,J7,4*%
%TO.N,GND*%
X107000000Y-86500000D03*
%TO.P,J7,3*%
%TO.N,+5V*%
X107000000Y-84000000D03*
%TO.P,J7,2*%
%TO.N,Net-(J7-Pad2)*%
X107000000Y-81500000D03*
D12*
%TO.P,J7,1*%
%TO.N,Net-(J7-Pad1)*%
X107000000Y-79000000D03*
%TD*%
D13*
%TO.P,J8,4*%
%TO.N,GND*%
X185000000Y-109500000D03*
%TO.P,J8,3*%
%TO.N,+5V*%
X185000000Y-112000000D03*
%TO.P,J8,2*%
%TO.N,Net-(J10-Pad1)*%
X185000000Y-114500000D03*
D18*
%TO.P,J8,1*%
%TO.N,Net-(J8-Pad1)*%
X185000000Y-117000000D03*
%TD*%
D21*
%TO.P,J9,2,Pin_2*%
%TO.N,GND*%
X137500000Y-120000000D03*
D22*
%TO.P,J9,1,Pin_1*%
%TO.N,Net-(J8-Pad1)*%
X140000000Y-120000000D03*
%TD*%
%TO.P,J10,1,Pin_1*%
%TO.N,Net-(J10-Pad1)*%
X154000000Y-120000000D03*
D21*
%TO.P,J10,2,Pin_2*%
%TO.N,GND*%
X151500000Y-120000000D03*
%TD*%
D23*
%TO.N,+5V*%
X116000000Y-88000000D03*
X113000000Y-86000000D03*
%TO.N,Net-(J3-Pad1)*%
X109000000Y-96000000D03*
X114000000Y-96000000D03*
%TO.N,Net-(J3-Pad2)*%
X109000000Y-99000000D03*
X114000000Y-99000000D03*
%TO.N,Net-(J7-Pad2)*%
X110000000Y-83000000D03*
X117000000Y-83000000D03*
%TO.N,p2_chan6*%
X135380000Y-72620000D03*
%TO.N,p2_chan2*%
X104000000Y-66000000D03*
X107000000Y-51000000D03*
%TO.N,p2_chan1*%
X105000000Y-66000000D03*
X108000000Y-59000000D03*
%TO.N,p1_chan1*%
X159000000Y-60000000D03*
X162000000Y-63000000D03*
%TO.N,p1_chan2*%
X155101041Y-68101041D03*
X153898959Y-66898959D03*
%TO.N,p1_chan3*%
X163000000Y-62000000D03*
X160101041Y-59898959D03*
%TO.N,p1_chan4*%
X163000000Y-51000000D03*
%TO.N,p1_chan5*%
X116000000Y-93000000D03*
X136000000Y-87000000D03*
%TO.N,synch*%
X143000000Y-81000000D03*
X161000000Y-76000000D03*
%TD*%
D24*
%TO.N,Net-(JP1-Pad3)*%
X143540000Y-100540000D02*
X143000000Y-100000000D01*
X143000000Y-91080000D02*
X146000000Y-88080000D01*
X146000000Y-100540000D02*
X143540000Y-100540000D01*
X143000000Y-100000000D02*
X143000000Y-91080000D01*
%TO.N,Net-(JP1-Pad1)*%
X167000000Y-97540000D02*
X168460000Y-97540000D01*
X170000000Y-92000000D02*
X168000000Y-90000000D01*
X168460000Y-97540000D02*
X170000000Y-96000000D01*
X170000000Y-96000000D02*
X170000000Y-92000000D01*
X168000000Y-90000000D02*
X156000000Y-90000000D01*
X156000000Y-90000000D02*
X149000000Y-83000000D01*
X149000000Y-83000000D02*
X146000000Y-83000000D01*
%TO.N,Net-(JP1-Pad3)*%
X167000000Y-95000000D02*
X164000000Y-95000000D01*
X164000000Y-95000000D02*
X158460000Y-100540000D01*
X158460000Y-100540000D02*
X146000000Y-100540000D01*
%TO.N,+5V*%
X126620000Y-92000000D02*
X122620000Y-88000000D01*
X122620000Y-88000000D02*
X116000000Y-88000000D01*
X111000000Y-84000000D02*
X107000000Y-84000000D01*
X113000000Y-86000000D02*
X111000000Y-84000000D01*
X107000000Y-101000000D02*
X105000000Y-99000000D01*
X113000000Y-87685034D02*
X113000000Y-86000000D01*
X105000000Y-95685034D02*
X113000000Y-87685034D01*
X105000000Y-99000000D02*
X105000000Y-95685034D01*
X107000000Y-101000000D02*
X105574990Y-102425010D01*
X107000000Y-67000000D02*
X105000000Y-69000000D01*
X107000000Y-83463491D02*
X107000000Y-84000000D01*
X105000000Y-81463491D02*
X107000000Y-83463491D01*
X105000000Y-69000000D02*
X105000000Y-76000000D01*
X105000000Y-76000000D02*
X105000000Y-81463491D01*
X130000000Y-68380000D02*
X126620000Y-65000000D01*
X130000000Y-73947781D02*
X130000000Y-68380000D01*
X127537771Y-76410010D02*
X130000000Y-73947781D01*
X123569970Y-76410010D02*
X127537771Y-76410010D01*
X114989990Y-78989990D02*
X120989990Y-78989990D01*
X120989990Y-78989990D02*
X123569970Y-76410010D01*
X111000000Y-75000000D02*
X114989990Y-78989990D01*
X106000000Y-75000000D02*
X111000000Y-75000000D01*
X105000000Y-76000000D02*
X106000000Y-75000000D01*
X178000000Y-98380000D02*
X174620000Y-95000000D01*
X185000000Y-82000000D02*
X188000000Y-79000000D01*
X188000000Y-68000000D02*
X185000000Y-65000000D01*
X188000000Y-79000000D02*
X188000000Y-68000000D01*
X185000000Y-82000000D02*
X184000000Y-82000000D01*
X106349990Y-116200010D02*
X107000000Y-116200010D01*
X105574990Y-115425010D02*
X106349990Y-116200010D01*
X105574990Y-102425010D02*
X105574990Y-115425010D01*
X181000000Y-112000000D02*
X178000000Y-109000000D01*
X185000000Y-112000000D02*
X181000000Y-112000000D01*
X178000000Y-109000000D02*
X178000000Y-98380000D01*
%TO.N,Net-(J1-Pad1)*%
X182320000Y-70000000D02*
X174620000Y-77700000D01*
X185000000Y-70000000D02*
X182320000Y-70000000D01*
%TO.N,Net-(J2-Pad1)*%
X182000000Y-84000000D02*
X185000000Y-87000000D01*
X172000000Y-81000000D02*
X175000000Y-84000000D01*
X175000000Y-84000000D02*
X182000000Y-84000000D01*
X172000000Y-69000000D02*
X172000000Y-81000000D01*
X168000000Y-65000000D02*
X172000000Y-69000000D01*
X167000000Y-65000000D02*
X168000000Y-65000000D01*
%TO.N,Net-(J2-Pad2)*%
X185000000Y-84500000D02*
X185500000Y-84500000D01*
X185500000Y-84500000D02*
X187000000Y-86000000D01*
X187000000Y-86000000D02*
X187000000Y-88000000D01*
X186699990Y-88300010D02*
X178300010Y-88300010D01*
X187000000Y-88000000D02*
X186699990Y-88300010D01*
X178300010Y-88300010D02*
X171000000Y-81000000D01*
X171000000Y-76620000D02*
X167000000Y-72620000D01*
X171000000Y-81000000D02*
X171000000Y-76620000D01*
%TO.N,Net-(J3-Pad1)*%
X109000000Y-96000000D02*
X114000000Y-96000000D01*
%TO.N,Net-(J3-Pad2)*%
X109000000Y-99000000D02*
X114000000Y-99000000D01*
%TO.N,Net-(J4-Pad1)*%
X163000000Y-88760000D02*
X156000000Y-81760000D01*
X163000000Y-89000000D02*
X163000000Y-88760000D01*
X172000000Y-89000000D02*
X163000000Y-89000000D01*
X182000000Y-99000000D02*
X172000000Y-89000000D01*
X185000000Y-99000000D02*
X182000000Y-99000000D01*
%TO.N,Net-(J6-Pad1)*%
X119000000Y-113000000D02*
X123000000Y-109000000D01*
X123000000Y-108320000D02*
X126620000Y-104700000D01*
X123000000Y-109000000D02*
X123000000Y-108320000D01*
X109000000Y-111000000D02*
X111000000Y-113000000D01*
X107000000Y-111000000D02*
X109000000Y-111000000D01*
X111000000Y-113000000D02*
X119000000Y-113000000D01*
%TO.N,Net-(J6-Pad2)*%
X129000000Y-99460000D02*
X126620000Y-97080000D01*
X129000000Y-110000000D02*
X129000000Y-99460000D01*
X123500000Y-115500000D02*
X129000000Y-110000000D01*
X108500000Y-113500000D02*
X110500000Y-115500000D01*
X107000000Y-113500000D02*
X108500000Y-113500000D01*
X110500000Y-115500000D02*
X123500000Y-115500000D01*
%TO.N,Net-(J7-Pad2)*%
X110000000Y-83000000D02*
X117000000Y-83000000D01*
%TO.N,Net-(J7-Pad1)*%
X107000000Y-79000000D02*
X111000000Y-79000000D01*
X111000000Y-79000000D02*
X114000000Y-82000000D01*
X114000000Y-82000000D02*
X121000000Y-82000000D01*
X125300000Y-77700000D02*
X126620000Y-77700000D01*
X121000000Y-82000000D02*
X125300000Y-77700000D01*
%TO.N,Net-(J8-Pad1)*%
X182799990Y-120000000D02*
X177799990Y-125000000D01*
X145000000Y-125000000D02*
X140000000Y-120000000D01*
X177799990Y-125000000D02*
X145000000Y-125000000D01*
X182799990Y-120000000D02*
X183000000Y-120000000D01*
X185000000Y-118000000D02*
X185000000Y-117000000D01*
X183000000Y-120000000D02*
X185000000Y-118000000D01*
%TO.N,Net-(J10-Pad1)*%
X159500000Y-114500000D02*
X156000000Y-118000000D01*
X156000000Y-118000000D02*
X154000000Y-120000000D01*
X185000000Y-114500000D02*
X159500000Y-114500000D01*
X156500000Y-117500000D02*
X156000000Y-118000000D01*
%TO.N,p2_chan6*%
X124700000Y-52300000D02*
X124700000Y-53460000D01*
X126000000Y-51000000D02*
X124700000Y-52300000D01*
X143000000Y-51000000D02*
X126000000Y-51000000D01*
X144000000Y-52000000D02*
X143000000Y-51000000D01*
X144000000Y-64000000D02*
X144000000Y-52000000D01*
X135380000Y-72620000D02*
X144000000Y-64000000D01*
%TO.N,p2_chan5*%
X126620000Y-80240000D02*
X127760000Y-80240000D01*
X127760000Y-80240000D02*
X132000000Y-76000000D01*
X132000000Y-63300000D02*
X124700000Y-56000000D01*
X132000000Y-76000000D02*
X132000000Y-63300000D01*
%TO.N,p2_chan4*%
X122160000Y-53460000D02*
X122160000Y-52160000D01*
X122160000Y-52160000D02*
X121000000Y-51000000D01*
X121000000Y-51000000D02*
X111000000Y-51000000D01*
X111000000Y-51000000D02*
X110000000Y-52000000D01*
X110000000Y-52000000D02*
X110000000Y-72000000D01*
X115700000Y-77700000D02*
X119000000Y-77700000D01*
X110000000Y-72000000D02*
X115700000Y-77700000D01*
%TO.N,p2_chan3*%
X122160000Y-66920000D02*
X119000000Y-70080000D01*
X122160000Y-56000000D02*
X122160000Y-66920000D01*
%TO.N,p2_chan2*%
X104000000Y-66000000D02*
X104000000Y-65000000D01*
X104000000Y-65000000D02*
X104000000Y-54000000D01*
X104000000Y-54000000D02*
X107000000Y-51000000D01*
%TO.N,p2_chan1*%
X105000000Y-66000000D02*
X105000000Y-65000000D01*
X105000000Y-65000000D02*
X105000000Y-61000000D01*
X105000000Y-61000000D02*
X107000000Y-59000000D01*
X107000000Y-59000000D02*
X108000000Y-59000000D01*
%TO.N,p1_chan1*%
X157620000Y-56000000D02*
X157620000Y-58620000D01*
X157620000Y-58620000D02*
X159000000Y-60000000D01*
X162000000Y-65080000D02*
X167000000Y-70080000D01*
X162000000Y-63000000D02*
X162000000Y-65080000D01*
%TO.N,p1_chan2*%
X167000000Y-77700000D02*
X164700000Y-77700000D01*
X164700000Y-77700000D02*
X157000000Y-70000000D01*
X157000000Y-70000000D02*
X155101041Y-68101041D01*
X155160000Y-51000000D02*
X157620000Y-53460000D01*
X147000000Y-51000000D02*
X155160000Y-51000000D01*
X146000000Y-52000000D02*
X147000000Y-51000000D01*
X146000000Y-59000000D02*
X146000000Y-52000000D01*
X153898959Y-66898959D02*
X146000000Y-59000000D01*
%TO.N,p1_chan3*%
X172969990Y-78589990D02*
X172969990Y-68030010D01*
X174620000Y-80240000D02*
X172969990Y-78589990D01*
X172969990Y-68030010D02*
X166939980Y-62000000D01*
X166939980Y-62000000D02*
X163000000Y-62000000D01*
X160101041Y-56058959D02*
X160160000Y-56000000D01*
X160101041Y-59898959D02*
X160101041Y-56058959D01*
%TO.N,p1_chan4*%
X174620000Y-72620000D02*
X177380000Y-72620000D01*
X177380000Y-72620000D02*
X182000000Y-68000000D01*
X182000000Y-68000000D02*
X182000000Y-62000000D01*
X182000000Y-62000000D02*
X183000000Y-61000000D01*
X183000000Y-61000000D02*
X183000000Y-53000000D01*
X183000000Y-53000000D02*
X181000000Y-51000000D01*
X181000000Y-51000000D02*
X163000000Y-51000000D01*
%TO.N,p1_chan5*%
X162700000Y-56000000D02*
X162700000Y-59300000D01*
X162700000Y-59300000D02*
X141000000Y-81000000D01*
X116000000Y-95000000D02*
X118080000Y-97080000D01*
X116000000Y-93000000D02*
X116000000Y-95000000D01*
X118080000Y-97080000D02*
X119000000Y-97080000D01*
X141000000Y-82000000D02*
X136000000Y-87000000D01*
X141000000Y-81000000D02*
X141000000Y-82000000D01*
%TO.N,p1_chan6*%
X119000000Y-104700000D02*
X118700000Y-104700000D01*
X118700000Y-104700000D02*
X115000000Y-101000000D01*
X115000000Y-101000000D02*
X115000000Y-90000000D01*
X115000000Y-90000000D02*
X115000000Y-87000000D01*
X115000000Y-87000000D02*
X119000000Y-83000000D01*
X119000000Y-83000000D02*
X129000000Y-83000000D01*
X129000000Y-83000000D02*
X145000000Y-67000000D01*
X145000000Y-52010037D02*
X147010037Y-50000000D01*
X145000000Y-67000000D02*
X145000000Y-52010037D01*
X159240000Y-50000000D02*
X162700000Y-53460000D01*
X147010037Y-50000000D02*
X159240000Y-50000000D01*
%TO.N,synch*%
X119000000Y-75160000D02*
X126620000Y-75160000D01*
X133460000Y-94540000D02*
X126620000Y-94540000D01*
X143000000Y-85000000D02*
X133460000Y-94540000D01*
X143540000Y-85540000D02*
X143000000Y-85000000D01*
X146000000Y-85540000D02*
X143540000Y-85540000D01*
X161000000Y-76000000D02*
X159000000Y-78000000D01*
X159000000Y-78000000D02*
X155000000Y-78000000D01*
X155000000Y-78000000D02*
X152000000Y-81000000D01*
X144000000Y-81000000D02*
X143000000Y-82000000D01*
X152000000Y-81000000D02*
X144000000Y-81000000D01*
X143000000Y-82000000D02*
X143000000Y-85000000D01*
X143000000Y-81000000D02*
X143000000Y-82000000D01*
%TD*%
M02*
