%TF.GenerationSoftware,KiCad,Pcbnew,6.0.6-3a73a75311~116~ubuntu20.04.1*%
%TF.CreationDate,2022-07-26T07:47:00+01:00*%
%TF.ProjectId,blanking_board,626c616e-6b69-46e6-975f-626f6172642e,rev?*%
%TF.SameCoordinates,Original*%
%TF.FileFunction,Legend,Top*%
%TF.FilePolarity,Positive*%
%FSLAX46Y46*%
G04 Gerber Fmt 4.6, Leading zero omitted, Abs format (unit mm)*
G04 Created by KiCad (PCBNEW 6.0.6-3a73a75311~116~ubuntu20.04.1) date 2022-07-26 07:47:00*
%MOMM*%
%LPD*%
G01*
G04 APERTURE LIST*
%ADD10C,0.300000*%
%ADD11C,0.200000*%
%ADD12C,0.150000*%
%ADD13C,0.120000*%
G04 APERTURE END LIST*
D10*
X147821428Y-98678571D02*
X147821428Y-97178571D01*
X148678571Y-98678571D01*
X148678571Y-97178571D01*
X149892857Y-97892857D02*
X150107142Y-97964285D01*
X150178571Y-98035714D01*
X150250000Y-98178571D01*
X150250000Y-98392857D01*
X150178571Y-98535714D01*
X150107142Y-98607142D01*
X149964285Y-98678571D01*
X149392857Y-98678571D01*
X149392857Y-97178571D01*
X149892857Y-97178571D01*
X150035714Y-97250000D01*
X150107142Y-97321428D01*
X150178571Y-97464285D01*
X150178571Y-97607142D01*
X150107142Y-97750000D01*
X150035714Y-97821428D01*
X149892857Y-97892857D01*
X149392857Y-97892857D01*
X147821428Y-100678571D02*
X147821428Y-99178571D01*
X148678571Y-100678571D01*
X148678571Y-99178571D01*
X149892857Y-99892857D02*
X150107142Y-99964285D01*
X150178571Y-100035714D01*
X150250000Y-100178571D01*
X150250000Y-100392857D01*
X150178571Y-100535714D01*
X150107142Y-100607142D01*
X149964285Y-100678571D01*
X149392857Y-100678571D01*
X149392857Y-99178571D01*
X149892857Y-99178571D01*
X150035714Y-99250000D01*
X150107142Y-99321428D01*
X150178571Y-99464285D01*
X150178571Y-99607142D01*
X150107142Y-99750000D01*
X150035714Y-99821428D01*
X149892857Y-99892857D01*
X149392857Y-99892857D01*
X144107142Y-100892857D02*
X144321428Y-100964285D01*
X144392857Y-101035714D01*
X144464285Y-101178571D01*
X144464285Y-101392857D01*
X144392857Y-101535714D01*
X144321428Y-101607142D01*
X144178571Y-101678571D01*
X143607142Y-101678571D01*
X143607142Y-100178571D01*
X144107142Y-100178571D01*
X144250000Y-100250000D01*
X144321428Y-100321428D01*
X144392857Y-100464285D01*
X144392857Y-100607142D01*
X144321428Y-100750000D01*
X144250000Y-100821428D01*
X144107142Y-100892857D01*
X143607142Y-100892857D01*
X144107142Y-102892857D02*
X144321428Y-102964285D01*
X144392857Y-103035714D01*
X144464285Y-103178571D01*
X144464285Y-103392857D01*
X144392857Y-103535714D01*
X144321428Y-103607142D01*
X144178571Y-103678571D01*
X143607142Y-103678571D01*
X143607142Y-102178571D01*
X144107142Y-102178571D01*
X144250000Y-102250000D01*
X144321428Y-102321428D01*
X144392857Y-102464285D01*
X144392857Y-102607142D01*
X144321428Y-102750000D01*
X144250000Y-102821428D01*
X144107142Y-102892857D01*
X143607142Y-102892857D01*
X181107142Y-99071428D02*
X181107142Y-97928571D01*
X181678571Y-98500000D02*
X180535714Y-98500000D01*
X181107142Y-96071428D02*
X181107142Y-94928571D01*
X190892857Y-101857142D02*
X190964285Y-101642857D01*
X191035714Y-101571428D01*
X191178571Y-101500000D01*
X191392857Y-101500000D01*
X191535714Y-101571428D01*
X191607142Y-101642857D01*
X191678571Y-101785714D01*
X191678571Y-102357142D01*
X190178571Y-102357142D01*
X190178571Y-101857142D01*
X190250000Y-101714285D01*
X190321428Y-101642857D01*
X190464285Y-101571428D01*
X190607142Y-101571428D01*
X190750000Y-101642857D01*
X190821428Y-101714285D01*
X190892857Y-101857142D01*
X190892857Y-102357142D01*
X191678571Y-100642857D02*
X191607142Y-100785714D01*
X191464285Y-100857142D01*
X190178571Y-100857142D01*
X191678571Y-99428571D02*
X190892857Y-99428571D01*
X190750000Y-99500000D01*
X190678571Y-99642857D01*
X190678571Y-99928571D01*
X190750000Y-100071428D01*
X191607142Y-99428571D02*
X191678571Y-99571428D01*
X191678571Y-99928571D01*
X191607142Y-100071428D01*
X191464285Y-100142857D01*
X191321428Y-100142857D01*
X191178571Y-100071428D01*
X191107142Y-99928571D01*
X191107142Y-99571428D01*
X191035714Y-99428571D01*
X190678571Y-98714285D02*
X191678571Y-98714285D01*
X190821428Y-98714285D02*
X190750000Y-98642857D01*
X190678571Y-98500000D01*
X190678571Y-98285714D01*
X190750000Y-98142857D01*
X190892857Y-98071428D01*
X191678571Y-98071428D01*
X191678571Y-97357142D02*
X190178571Y-97357142D01*
X191107142Y-97214285D02*
X191678571Y-96785714D01*
X190678571Y-96785714D02*
X191250000Y-97357142D01*
X191678571Y-95000000D02*
X190678571Y-95000000D01*
X190178571Y-95000000D02*
X190250000Y-95071428D01*
X190321428Y-95000000D01*
X190250000Y-94928571D01*
X190178571Y-95000000D01*
X190321428Y-95000000D01*
X190678571Y-94285714D02*
X191678571Y-94285714D01*
X190821428Y-94285714D02*
X190750000Y-94214285D01*
X190678571Y-94071428D01*
X190678571Y-93857142D01*
X190750000Y-93714285D01*
X190892857Y-93642857D01*
X191678571Y-93642857D01*
D11*
X133928571Y-109037380D02*
X133928571Y-108037380D01*
X134309523Y-108037380D01*
X134404761Y-108085000D01*
X134452380Y-108132619D01*
X134500000Y-108227857D01*
X134500000Y-108370714D01*
X134452380Y-108465952D01*
X134404761Y-108513571D01*
X134309523Y-108561190D01*
X133928571Y-108561190D01*
X135071428Y-109037380D02*
X134976190Y-108989761D01*
X134928571Y-108942142D01*
X134880952Y-108846904D01*
X134880952Y-108561190D01*
X134928571Y-108465952D01*
X134976190Y-108418333D01*
X135071428Y-108370714D01*
X135214285Y-108370714D01*
X135309523Y-108418333D01*
X135357142Y-108465952D01*
X135404761Y-108561190D01*
X135404761Y-108846904D01*
X135357142Y-108942142D01*
X135309523Y-108989761D01*
X135214285Y-109037380D01*
X135071428Y-109037380D01*
X135976190Y-109037380D02*
X135880952Y-108989761D01*
X135833333Y-108942142D01*
X135785714Y-108846904D01*
X135785714Y-108561190D01*
X135833333Y-108465952D01*
X135880952Y-108418333D01*
X135976190Y-108370714D01*
X136119047Y-108370714D01*
X136214285Y-108418333D01*
X136261904Y-108465952D01*
X136309523Y-108561190D01*
X136309523Y-108846904D01*
X136261904Y-108942142D01*
X136214285Y-108989761D01*
X136119047Y-109037380D01*
X135976190Y-109037380D01*
X136738095Y-109037380D02*
X136738095Y-108370714D01*
X136738095Y-108561190D02*
X136785714Y-108465952D01*
X136833333Y-108418333D01*
X136928571Y-108370714D01*
X137023809Y-108370714D01*
X137500000Y-109037380D02*
X137404761Y-108989761D01*
X137357142Y-108894523D01*
X137357142Y-108037380D01*
X138309523Y-109037380D02*
X138309523Y-108513571D01*
X138261904Y-108418333D01*
X138166666Y-108370714D01*
X137976190Y-108370714D01*
X137880952Y-108418333D01*
X138309523Y-108989761D02*
X138214285Y-109037380D01*
X137976190Y-109037380D01*
X137880952Y-108989761D01*
X137833333Y-108894523D01*
X137833333Y-108799285D01*
X137880952Y-108704047D01*
X137976190Y-108656428D01*
X138214285Y-108656428D01*
X138309523Y-108608809D01*
X138785714Y-109037380D02*
X138785714Y-108037380D01*
X138785714Y-108418333D02*
X138880952Y-108370714D01*
X139071428Y-108370714D01*
X139166666Y-108418333D01*
X139214285Y-108465952D01*
X139261904Y-108561190D01*
X139261904Y-108846904D01*
X139214285Y-108942142D01*
X139166666Y-108989761D01*
X139071428Y-109037380D01*
X138880952Y-109037380D01*
X138785714Y-108989761D01*
X139642857Y-108989761D02*
X139738095Y-109037380D01*
X139928571Y-109037380D01*
X140023809Y-108989761D01*
X140071428Y-108894523D01*
X140071428Y-108846904D01*
X140023809Y-108751666D01*
X139928571Y-108704047D01*
X139785714Y-108704047D01*
X139690476Y-108656428D01*
X139642857Y-108561190D01*
X139642857Y-108513571D01*
X139690476Y-108418333D01*
X139785714Y-108370714D01*
X139928571Y-108370714D01*
X140023809Y-108418333D01*
X141833333Y-108942142D02*
X141785714Y-108989761D01*
X141642857Y-109037380D01*
X141547619Y-109037380D01*
X141404761Y-108989761D01*
X141309523Y-108894523D01*
X141261904Y-108799285D01*
X141214285Y-108608809D01*
X141214285Y-108465952D01*
X141261904Y-108275476D01*
X141309523Y-108180238D01*
X141404761Y-108085000D01*
X141547619Y-108037380D01*
X141642857Y-108037380D01*
X141785714Y-108085000D01*
X141833333Y-108132619D01*
X142261904Y-109037380D02*
X142261904Y-108037380D01*
X142690476Y-109037380D02*
X142690476Y-108513571D01*
X142642857Y-108418333D01*
X142547619Y-108370714D01*
X142404761Y-108370714D01*
X142309523Y-108418333D01*
X142261904Y-108465952D01*
X143166666Y-109037380D02*
X143166666Y-108370714D01*
X143166666Y-108561190D02*
X143214285Y-108465952D01*
X143261904Y-108418333D01*
X143357142Y-108370714D01*
X143452380Y-108370714D01*
X143928571Y-109037380D02*
X143833333Y-108989761D01*
X143785714Y-108942142D01*
X143738095Y-108846904D01*
X143738095Y-108561190D01*
X143785714Y-108465952D01*
X143833333Y-108418333D01*
X143928571Y-108370714D01*
X144071428Y-108370714D01*
X144166666Y-108418333D01*
X144214285Y-108465952D01*
X144261904Y-108561190D01*
X144261904Y-108846904D01*
X144214285Y-108942142D01*
X144166666Y-108989761D01*
X144071428Y-109037380D01*
X143928571Y-109037380D01*
X144833333Y-109037380D02*
X144738095Y-108989761D01*
X144690476Y-108894523D01*
X144690476Y-108037380D01*
X145214285Y-109037380D02*
X145214285Y-108370714D01*
X145214285Y-108037380D02*
X145166666Y-108085000D01*
X145214285Y-108132619D01*
X145261904Y-108085000D01*
X145214285Y-108037380D01*
X145214285Y-108132619D01*
X145642857Y-108989761D02*
X145738095Y-109037380D01*
X145928571Y-109037380D01*
X146023809Y-108989761D01*
X146071428Y-108894523D01*
X146071428Y-108846904D01*
X146023809Y-108751666D01*
X145928571Y-108704047D01*
X145785714Y-108704047D01*
X145690476Y-108656428D01*
X145642857Y-108561190D01*
X145642857Y-108513571D01*
X145690476Y-108418333D01*
X145785714Y-108370714D01*
X145928571Y-108370714D01*
X146023809Y-108418333D01*
X147690476Y-108989761D02*
X147595238Y-109037380D01*
X147404761Y-109037380D01*
X147309523Y-108989761D01*
X147261904Y-108942142D01*
X147214285Y-108846904D01*
X147214285Y-108561190D01*
X147261904Y-108465952D01*
X147309523Y-108418333D01*
X147404761Y-108370714D01*
X147595238Y-108370714D01*
X147690476Y-108418333D01*
X148261904Y-109037380D02*
X148166666Y-108989761D01*
X148119047Y-108942142D01*
X148071428Y-108846904D01*
X148071428Y-108561190D01*
X148119047Y-108465952D01*
X148166666Y-108418333D01*
X148261904Y-108370714D01*
X148404761Y-108370714D01*
X148500000Y-108418333D01*
X148547619Y-108465952D01*
X148595238Y-108561190D01*
X148595238Y-108846904D01*
X148547619Y-108942142D01*
X148500000Y-108989761D01*
X148404761Y-109037380D01*
X148261904Y-109037380D01*
X149023809Y-108370714D02*
X149023809Y-109037380D01*
X149023809Y-108465952D02*
X149071428Y-108418333D01*
X149166666Y-108370714D01*
X149309523Y-108370714D01*
X149404761Y-108418333D01*
X149452380Y-108513571D01*
X149452380Y-109037380D01*
X149785714Y-108370714D02*
X150166666Y-108370714D01*
X149928571Y-108037380D02*
X149928571Y-108894523D01*
X149976190Y-108989761D01*
X150071428Y-109037380D01*
X150166666Y-109037380D01*
X150500000Y-109037380D02*
X150500000Y-108370714D01*
X150500000Y-108561190D02*
X150547619Y-108465952D01*
X150595238Y-108418333D01*
X150690476Y-108370714D01*
X150785714Y-108370714D01*
X151261904Y-109037380D02*
X151166666Y-108989761D01*
X151119047Y-108942142D01*
X151071428Y-108846904D01*
X151071428Y-108561190D01*
X151119047Y-108465952D01*
X151166666Y-108418333D01*
X151261904Y-108370714D01*
X151404761Y-108370714D01*
X151500000Y-108418333D01*
X151547619Y-108465952D01*
X151595238Y-108561190D01*
X151595238Y-108846904D01*
X151547619Y-108942142D01*
X151500000Y-108989761D01*
X151404761Y-109037380D01*
X151261904Y-109037380D01*
X152166666Y-109037380D02*
X152071428Y-108989761D01*
X152023809Y-108894523D01*
X152023809Y-108037380D01*
X152690476Y-109037380D02*
X152595238Y-108989761D01*
X152547619Y-108894523D01*
X152547619Y-108037380D01*
X153452380Y-108989761D02*
X153357142Y-109037380D01*
X153166666Y-109037380D01*
X153071428Y-108989761D01*
X153023809Y-108894523D01*
X153023809Y-108513571D01*
X153071428Y-108418333D01*
X153166666Y-108370714D01*
X153357142Y-108370714D01*
X153452380Y-108418333D01*
X153500000Y-108513571D01*
X153500000Y-108608809D01*
X153023809Y-108704047D01*
X153928571Y-109037380D02*
X153928571Y-108370714D01*
X153928571Y-108561190D02*
X153976190Y-108465952D01*
X154023809Y-108418333D01*
X154119047Y-108370714D01*
X154214285Y-108370714D01*
X155166666Y-108037380D02*
X155500000Y-109037380D01*
X155833333Y-108037380D01*
X156357142Y-108037380D02*
X156452380Y-108037380D01*
X156547619Y-108085000D01*
X156595238Y-108132619D01*
X156642857Y-108227857D01*
X156690476Y-108418333D01*
X156690476Y-108656428D01*
X156642857Y-108846904D01*
X156595238Y-108942142D01*
X156547619Y-108989761D01*
X156452380Y-109037380D01*
X156357142Y-109037380D01*
X156261904Y-108989761D01*
X156214285Y-108942142D01*
X156166666Y-108846904D01*
X156119047Y-108656428D01*
X156119047Y-108418333D01*
X156166666Y-108227857D01*
X156214285Y-108132619D01*
X156261904Y-108085000D01*
X156357142Y-108037380D01*
X157119047Y-108942142D02*
X157166666Y-108989761D01*
X157119047Y-109037380D01*
X157071428Y-108989761D01*
X157119047Y-108942142D01*
X157119047Y-109037380D01*
X158119047Y-109037380D02*
X157547619Y-109037380D01*
X157833333Y-109037380D02*
X157833333Y-108037380D01*
X157738095Y-108180238D01*
X157642857Y-108275476D01*
X157547619Y-108323095D01*
X139142857Y-110552142D02*
X139095238Y-110599761D01*
X138952380Y-110647380D01*
X138857142Y-110647380D01*
X138714285Y-110599761D01*
X138619047Y-110504523D01*
X138571428Y-110409285D01*
X138523809Y-110218809D01*
X138523809Y-110075952D01*
X138571428Y-109885476D01*
X138619047Y-109790238D01*
X138714285Y-109695000D01*
X138857142Y-109647380D01*
X138952380Y-109647380D01*
X139095238Y-109695000D01*
X139142857Y-109742619D01*
X139571428Y-110123571D02*
X139904761Y-110123571D01*
X140047619Y-110647380D02*
X139571428Y-110647380D01*
X139571428Y-109647380D01*
X140047619Y-109647380D01*
X141047619Y-110647380D02*
X140714285Y-110171190D01*
X140476190Y-110647380D02*
X140476190Y-109647380D01*
X140857142Y-109647380D01*
X140952380Y-109695000D01*
X141000000Y-109742619D01*
X141047619Y-109837857D01*
X141047619Y-109980714D01*
X141000000Y-110075952D01*
X140952380Y-110123571D01*
X140857142Y-110171190D01*
X140476190Y-110171190D01*
X141476190Y-110647380D02*
X141476190Y-109647380D01*
X142047619Y-110647380D01*
X142047619Y-109647380D01*
X143476190Y-109647380D02*
X143666666Y-109647380D01*
X143761904Y-109695000D01*
X143857142Y-109790238D01*
X143904761Y-109980714D01*
X143904761Y-110314047D01*
X143857142Y-110504523D01*
X143761904Y-110599761D01*
X143666666Y-110647380D01*
X143476190Y-110647380D01*
X143380952Y-110599761D01*
X143285714Y-110504523D01*
X143238095Y-110314047D01*
X143238095Y-109980714D01*
X143285714Y-109790238D01*
X143380952Y-109695000D01*
X143476190Y-109647380D01*
X144333333Y-110647380D02*
X144333333Y-109647380D01*
X144333333Y-110123571D02*
X144904761Y-110123571D01*
X144904761Y-110647380D02*
X144904761Y-109647380D01*
X145857142Y-110647380D02*
X145380952Y-110647380D01*
X145380952Y-109647380D01*
X146952380Y-110266428D02*
X147714285Y-110266428D01*
X148904761Y-110599761D02*
X149047619Y-110647380D01*
X149285714Y-110647380D01*
X149380952Y-110599761D01*
X149428571Y-110552142D01*
X149476190Y-110456904D01*
X149476190Y-110361666D01*
X149428571Y-110266428D01*
X149380952Y-110218809D01*
X149285714Y-110171190D01*
X149095238Y-110123571D01*
X149000000Y-110075952D01*
X148952380Y-110028333D01*
X148904761Y-109933095D01*
X148904761Y-109837857D01*
X148952380Y-109742619D01*
X149000000Y-109695000D01*
X149095238Y-109647380D01*
X149333333Y-109647380D01*
X149476190Y-109695000D01*
X150523809Y-109647380D02*
X150857142Y-110647380D01*
X151190476Y-109647380D01*
X151476190Y-109742619D02*
X151523809Y-109695000D01*
X151619047Y-109647380D01*
X151857142Y-109647380D01*
X151952380Y-109695000D01*
X152000000Y-109742619D01*
X152047619Y-109837857D01*
X152047619Y-109933095D01*
X152000000Y-110075952D01*
X151428571Y-110647380D01*
X152047619Y-110647380D01*
X152476190Y-110552142D02*
X152523809Y-110599761D01*
X152476190Y-110647380D01*
X152428571Y-110599761D01*
X152476190Y-110552142D01*
X152476190Y-110647380D01*
X153142857Y-109647380D02*
X153238095Y-109647380D01*
X153333333Y-109695000D01*
X153380952Y-109742619D01*
X153428571Y-109837857D01*
X153476190Y-110028333D01*
X153476190Y-110266428D01*
X153428571Y-110456904D01*
X153380952Y-110552142D01*
X153333333Y-110599761D01*
X153238095Y-110647380D01*
X153142857Y-110647380D01*
X153047619Y-110599761D01*
X153000000Y-110552142D01*
X152952380Y-110456904D01*
X152904761Y-110266428D01*
X152904761Y-110028333D01*
X152952380Y-109837857D01*
X153000000Y-109742619D01*
X153047619Y-109695000D01*
X153142857Y-109647380D01*
X140071428Y-111971666D02*
X140547619Y-111971666D01*
X139976190Y-112257380D02*
X140309523Y-111257380D01*
X140642857Y-112257380D01*
X140976190Y-111590714D02*
X140976190Y-112257380D01*
X140976190Y-111685952D02*
X141023809Y-111638333D01*
X141119047Y-111590714D01*
X141261904Y-111590714D01*
X141357142Y-111638333D01*
X141404761Y-111733571D01*
X141404761Y-112257380D01*
X142309523Y-112257380D02*
X142309523Y-111257380D01*
X142309523Y-112209761D02*
X142214285Y-112257380D01*
X142023809Y-112257380D01*
X141928571Y-112209761D01*
X141880952Y-112162142D01*
X141833333Y-112066904D01*
X141833333Y-111781190D01*
X141880952Y-111685952D01*
X141928571Y-111638333D01*
X142023809Y-111590714D01*
X142214285Y-111590714D01*
X142309523Y-111638333D01*
X142785714Y-112257380D02*
X142785714Y-111590714D01*
X142785714Y-111781190D02*
X142833333Y-111685952D01*
X142880952Y-111638333D01*
X142976190Y-111590714D01*
X143071428Y-111590714D01*
X143785714Y-112209761D02*
X143690476Y-112257380D01*
X143500000Y-112257380D01*
X143404761Y-112209761D01*
X143357142Y-112114523D01*
X143357142Y-111733571D01*
X143404761Y-111638333D01*
X143500000Y-111590714D01*
X143690476Y-111590714D01*
X143785714Y-111638333D01*
X143833333Y-111733571D01*
X143833333Y-111828809D01*
X143357142Y-111924047D01*
X145023809Y-112257380D02*
X145023809Y-111257380D01*
X145357142Y-111971666D01*
X145690476Y-111257380D01*
X145690476Y-112257380D01*
X147500000Y-112162142D02*
X147452380Y-112209761D01*
X147309523Y-112257380D01*
X147214285Y-112257380D01*
X147071428Y-112209761D01*
X146976190Y-112114523D01*
X146928571Y-112019285D01*
X146880952Y-111828809D01*
X146880952Y-111685952D01*
X146928571Y-111495476D01*
X146976190Y-111400238D01*
X147071428Y-111305000D01*
X147214285Y-111257380D01*
X147309523Y-111257380D01*
X147452380Y-111305000D01*
X147500000Y-111352619D01*
X147928571Y-112257380D02*
X147928571Y-111257380D01*
X148357142Y-112257380D02*
X148357142Y-111733571D01*
X148309523Y-111638333D01*
X148214285Y-111590714D01*
X148071428Y-111590714D01*
X147976190Y-111638333D01*
X147928571Y-111685952D01*
X149261904Y-112257380D02*
X149261904Y-111733571D01*
X149214285Y-111638333D01*
X149119047Y-111590714D01*
X148928571Y-111590714D01*
X148833333Y-111638333D01*
X149261904Y-112209761D02*
X149166666Y-112257380D01*
X148928571Y-112257380D01*
X148833333Y-112209761D01*
X148785714Y-112114523D01*
X148785714Y-112019285D01*
X148833333Y-111924047D01*
X148928571Y-111876428D01*
X149166666Y-111876428D01*
X149261904Y-111828809D01*
X150166666Y-111590714D02*
X150166666Y-112400238D01*
X150119047Y-112495476D01*
X150071428Y-112543095D01*
X149976190Y-112590714D01*
X149833333Y-112590714D01*
X149738095Y-112543095D01*
X150166666Y-112209761D02*
X150071428Y-112257380D01*
X149880952Y-112257380D01*
X149785714Y-112209761D01*
X149738095Y-112162142D01*
X149690476Y-112066904D01*
X149690476Y-111781190D01*
X149738095Y-111685952D01*
X149785714Y-111638333D01*
X149880952Y-111590714D01*
X150071428Y-111590714D01*
X150166666Y-111638333D01*
X151071428Y-112257380D02*
X151071428Y-111733571D01*
X151023809Y-111638333D01*
X150928571Y-111590714D01*
X150738095Y-111590714D01*
X150642857Y-111638333D01*
X151071428Y-112209761D02*
X150976190Y-112257380D01*
X150738095Y-112257380D01*
X150642857Y-112209761D01*
X150595238Y-112114523D01*
X150595238Y-112019285D01*
X150642857Y-111924047D01*
X150738095Y-111876428D01*
X150976190Y-111876428D01*
X151071428Y-111828809D01*
X151500000Y-112209761D02*
X151595238Y-112257380D01*
X151785714Y-112257380D01*
X151880952Y-112209761D01*
X151928571Y-112114523D01*
X151928571Y-112066904D01*
X151880952Y-111971666D01*
X151785714Y-111924047D01*
X151642857Y-111924047D01*
X151547619Y-111876428D01*
X151500000Y-111781190D01*
X151500000Y-111733571D01*
X151547619Y-111638333D01*
X151642857Y-111590714D01*
X151785714Y-111590714D01*
X151880952Y-111638333D01*
X141142857Y-112962619D02*
X141190476Y-112915000D01*
X141285714Y-112867380D01*
X141523809Y-112867380D01*
X141619047Y-112915000D01*
X141666666Y-112962619D01*
X141714285Y-113057857D01*
X141714285Y-113153095D01*
X141666666Y-113295952D01*
X141095238Y-113867380D01*
X141714285Y-113867380D01*
X142333333Y-112867380D02*
X142428571Y-112867380D01*
X142523809Y-112915000D01*
X142571428Y-112962619D01*
X142619047Y-113057857D01*
X142666666Y-113248333D01*
X142666666Y-113486428D01*
X142619047Y-113676904D01*
X142571428Y-113772142D01*
X142523809Y-113819761D01*
X142428571Y-113867380D01*
X142333333Y-113867380D01*
X142238095Y-113819761D01*
X142190476Y-113772142D01*
X142142857Y-113676904D01*
X142095238Y-113486428D01*
X142095238Y-113248333D01*
X142142857Y-113057857D01*
X142190476Y-112962619D01*
X142238095Y-112915000D01*
X142333333Y-112867380D01*
X143047619Y-112962619D02*
X143095238Y-112915000D01*
X143190476Y-112867380D01*
X143428571Y-112867380D01*
X143523809Y-112915000D01*
X143571428Y-112962619D01*
X143619047Y-113057857D01*
X143619047Y-113153095D01*
X143571428Y-113295952D01*
X143000000Y-113867380D01*
X143619047Y-113867380D01*
X144000000Y-112962619D02*
X144047619Y-112915000D01*
X144142857Y-112867380D01*
X144380952Y-112867380D01*
X144476190Y-112915000D01*
X144523809Y-112962619D01*
X144571428Y-113057857D01*
X144571428Y-113153095D01*
X144523809Y-113295952D01*
X143952380Y-113867380D01*
X144571428Y-113867380D01*
X145000000Y-113486428D02*
X145761904Y-113486428D01*
X146428571Y-112867380D02*
X146523809Y-112867380D01*
X146619047Y-112915000D01*
X146666666Y-112962619D01*
X146714285Y-113057857D01*
X146761904Y-113248333D01*
X146761904Y-113486428D01*
X146714285Y-113676904D01*
X146666666Y-113772142D01*
X146619047Y-113819761D01*
X146523809Y-113867380D01*
X146428571Y-113867380D01*
X146333333Y-113819761D01*
X146285714Y-113772142D01*
X146238095Y-113676904D01*
X146190476Y-113486428D01*
X146190476Y-113248333D01*
X146238095Y-113057857D01*
X146285714Y-112962619D01*
X146333333Y-112915000D01*
X146428571Y-112867380D01*
X147095238Y-112867380D02*
X147714285Y-112867380D01*
X147380952Y-113248333D01*
X147523809Y-113248333D01*
X147619047Y-113295952D01*
X147666666Y-113343571D01*
X147714285Y-113438809D01*
X147714285Y-113676904D01*
X147666666Y-113772142D01*
X147619047Y-113819761D01*
X147523809Y-113867380D01*
X147238095Y-113867380D01*
X147142857Y-113819761D01*
X147095238Y-113772142D01*
X148142857Y-113486428D02*
X148904761Y-113486428D01*
X149333333Y-112962619D02*
X149380952Y-112915000D01*
X149476190Y-112867380D01*
X149714285Y-112867380D01*
X149809523Y-112915000D01*
X149857142Y-112962619D01*
X149904761Y-113057857D01*
X149904761Y-113153095D01*
X149857142Y-113295952D01*
X149285714Y-113867380D01*
X149904761Y-113867380D01*
X150809523Y-112867380D02*
X150333333Y-112867380D01*
X150285714Y-113343571D01*
X150333333Y-113295952D01*
X150428571Y-113248333D01*
X150666666Y-113248333D01*
X150761904Y-113295952D01*
X150809523Y-113343571D01*
X150857142Y-113438809D01*
X150857142Y-113676904D01*
X150809523Y-113772142D01*
X150761904Y-113819761D01*
X150666666Y-113867380D01*
X150428571Y-113867380D01*
X150333333Y-113819761D01*
X150285714Y-113772142D01*
D12*
%TO.C,JP2*%
X145166666Y-95122380D02*
X145166666Y-95836666D01*
X145119047Y-95979523D01*
X145023809Y-96074761D01*
X144880952Y-96122380D01*
X144785714Y-96122380D01*
X145642857Y-96122380D02*
X145642857Y-95122380D01*
X146023809Y-95122380D01*
X146119047Y-95170000D01*
X146166666Y-95217619D01*
X146214285Y-95312857D01*
X146214285Y-95455714D01*
X146166666Y-95550952D01*
X146119047Y-95598571D01*
X146023809Y-95646190D01*
X145642857Y-95646190D01*
X146595238Y-95217619D02*
X146642857Y-95170000D01*
X146738095Y-95122380D01*
X146976190Y-95122380D01*
X147071428Y-95170000D01*
X147119047Y-95217619D01*
X147166666Y-95312857D01*
X147166666Y-95408095D01*
X147119047Y-95550952D01*
X146547619Y-96122380D01*
X147166666Y-96122380D01*
%TO.C,J6*%
X110002380Y-115083333D02*
X110716666Y-115083333D01*
X110859523Y-115130952D01*
X110954761Y-115226190D01*
X111002380Y-115369047D01*
X111002380Y-115464285D01*
X110002380Y-114178571D02*
X110002380Y-114369047D01*
X110050000Y-114464285D01*
X110097619Y-114511904D01*
X110240476Y-114607142D01*
X110430952Y-114654761D01*
X110811904Y-114654761D01*
X110907142Y-114607142D01*
X110954761Y-114559523D01*
X111002380Y-114464285D01*
X111002380Y-114273809D01*
X110954761Y-114178571D01*
X110907142Y-114130952D01*
X110811904Y-114083333D01*
X110573809Y-114083333D01*
X110478571Y-114130952D01*
X110430952Y-114178571D01*
X110383333Y-114273809D01*
X110383333Y-114464285D01*
X110430952Y-114559523D01*
X110478571Y-114607142D01*
X110573809Y-114654761D01*
%TO.C,U2*%
X170048095Y-62122380D02*
X170048095Y-62931904D01*
X170095714Y-63027142D01*
X170143333Y-63074761D01*
X170238571Y-63122380D01*
X170429047Y-63122380D01*
X170524285Y-63074761D01*
X170571904Y-63027142D01*
X170619523Y-62931904D01*
X170619523Y-62122380D01*
X171048095Y-62217619D02*
X171095714Y-62170000D01*
X171190952Y-62122380D01*
X171429047Y-62122380D01*
X171524285Y-62170000D01*
X171571904Y-62217619D01*
X171619523Y-62312857D01*
X171619523Y-62408095D01*
X171571904Y-62550952D01*
X171000476Y-63122380D01*
X171619523Y-63122380D01*
X168167142Y-82022380D02*
X168833809Y-82022380D01*
X168405238Y-83022380D01*
X169643333Y-82355714D02*
X169643333Y-83022380D01*
X169405238Y-81974761D02*
X169167142Y-82689047D01*
X169786190Y-82689047D01*
X170643333Y-83022380D02*
X170167142Y-83022380D01*
X170167142Y-82022380D01*
X170929047Y-82974761D02*
X171071904Y-83022380D01*
X171310000Y-83022380D01*
X171405238Y-82974761D01*
X171452857Y-82927142D01*
X171500476Y-82831904D01*
X171500476Y-82736666D01*
X171452857Y-82641428D01*
X171405238Y-82593809D01*
X171310000Y-82546190D01*
X171119523Y-82498571D01*
X171024285Y-82450952D01*
X170976666Y-82403333D01*
X170929047Y-82308095D01*
X170929047Y-82212857D01*
X170976666Y-82117619D01*
X171024285Y-82070000D01*
X171119523Y-82022380D01*
X171357619Y-82022380D01*
X171500476Y-82070000D01*
X172119523Y-82022380D02*
X172214761Y-82022380D01*
X172310000Y-82070000D01*
X172357619Y-82117619D01*
X172405238Y-82212857D01*
X172452857Y-82403333D01*
X172452857Y-82641428D01*
X172405238Y-82831904D01*
X172357619Y-82927142D01*
X172310000Y-82974761D01*
X172214761Y-83022380D01*
X172119523Y-83022380D01*
X172024285Y-82974761D01*
X171976666Y-82927142D01*
X171929047Y-82831904D01*
X171881428Y-82641428D01*
X171881428Y-82403333D01*
X171929047Y-82212857D01*
X171976666Y-82117619D01*
X172024285Y-82070000D01*
X172119523Y-82022380D01*
X173024285Y-82450952D02*
X172929047Y-82403333D01*
X172881428Y-82355714D01*
X172833809Y-82260476D01*
X172833809Y-82212857D01*
X172881428Y-82117619D01*
X172929047Y-82070000D01*
X173024285Y-82022380D01*
X173214761Y-82022380D01*
X173310000Y-82070000D01*
X173357619Y-82117619D01*
X173405238Y-82212857D01*
X173405238Y-82260476D01*
X173357619Y-82355714D01*
X173310000Y-82403333D01*
X173214761Y-82450952D01*
X173024285Y-82450952D01*
X172929047Y-82498571D01*
X172881428Y-82546190D01*
X172833809Y-82641428D01*
X172833809Y-82831904D01*
X172881428Y-82927142D01*
X172929047Y-82974761D01*
X173024285Y-83022380D01*
X173214761Y-83022380D01*
X173310000Y-82974761D01*
X173357619Y-82927142D01*
X173405238Y-82831904D01*
X173405238Y-82641428D01*
X173357619Y-82546190D01*
X173310000Y-82498571D01*
X173214761Y-82450952D01*
%TO.C,J11*%
X109122380Y-55539523D02*
X109836666Y-55539523D01*
X109979523Y-55587142D01*
X110074761Y-55682380D01*
X110122380Y-55825238D01*
X110122380Y-55920476D01*
X110122380Y-54539523D02*
X110122380Y-55110952D01*
X110122380Y-54825238D02*
X109122380Y-54825238D01*
X109265238Y-54920476D01*
X109360476Y-55015714D01*
X109408095Y-55110952D01*
X110122380Y-53587142D02*
X110122380Y-54158571D01*
X110122380Y-53872857D02*
X109122380Y-53872857D01*
X109265238Y-53968095D01*
X109360476Y-54063333D01*
X109408095Y-54158571D01*
%TO.C,J12*%
X147122380Y-55539523D02*
X147836666Y-55539523D01*
X147979523Y-55587142D01*
X148074761Y-55682380D01*
X148122380Y-55825238D01*
X148122380Y-55920476D01*
X148122380Y-54539523D02*
X148122380Y-55110952D01*
X148122380Y-54825238D02*
X147122380Y-54825238D01*
X147265238Y-54920476D01*
X147360476Y-55015714D01*
X147408095Y-55110952D01*
X147217619Y-54158571D02*
X147170000Y-54110952D01*
X147122380Y-54015714D01*
X147122380Y-53777619D01*
X147170000Y-53682380D01*
X147217619Y-53634761D01*
X147312857Y-53587142D01*
X147408095Y-53587142D01*
X147550952Y-53634761D01*
X148122380Y-54206190D01*
X148122380Y-53587142D01*
%TO.C,JP1*%
X145166666Y-80122380D02*
X145166666Y-80836666D01*
X145119047Y-80979523D01*
X145023809Y-81074761D01*
X144880952Y-81122380D01*
X144785714Y-81122380D01*
X145642857Y-81122380D02*
X145642857Y-80122380D01*
X146023809Y-80122380D01*
X146119047Y-80170000D01*
X146166666Y-80217619D01*
X146214285Y-80312857D01*
X146214285Y-80455714D01*
X146166666Y-80550952D01*
X146119047Y-80598571D01*
X146023809Y-80646190D01*
X145642857Y-80646190D01*
X147166666Y-81122380D02*
X146595238Y-81122380D01*
X146880952Y-81122380D02*
X146880952Y-80122380D01*
X146785714Y-80265238D01*
X146690476Y-80360476D01*
X146595238Y-80408095D01*
%TO.C,R1*%
X153532380Y-89546666D02*
X153056190Y-89880000D01*
X153532380Y-90118095D02*
X152532380Y-90118095D01*
X152532380Y-89737142D01*
X152580000Y-89641904D01*
X152627619Y-89594285D01*
X152722857Y-89546666D01*
X152865714Y-89546666D01*
X152960952Y-89594285D01*
X153008571Y-89641904D01*
X153056190Y-89737142D01*
X153056190Y-90118095D01*
X153532380Y-88594285D02*
X153532380Y-89165714D01*
X153532380Y-88880000D02*
X152532380Y-88880000D01*
X152675238Y-88975238D01*
X152770476Y-89070476D01*
X152818095Y-89165714D01*
X159372380Y-89499047D02*
X159372380Y-90070476D01*
X159372380Y-89784761D02*
X158372380Y-89784761D01*
X158515238Y-89880000D01*
X158610476Y-89975238D01*
X158658095Y-90070476D01*
X159372380Y-89070476D02*
X158372380Y-89070476D01*
X158991428Y-88975238D02*
X159372380Y-88689523D01*
X158705714Y-88689523D02*
X159086666Y-89070476D01*
%TO.C,U1*%
X170048095Y-92122380D02*
X170048095Y-92931904D01*
X170095714Y-93027142D01*
X170143333Y-93074761D01*
X170238571Y-93122380D01*
X170429047Y-93122380D01*
X170524285Y-93074761D01*
X170571904Y-93027142D01*
X170619523Y-92931904D01*
X170619523Y-92122380D01*
X171619523Y-93122380D02*
X171048095Y-93122380D01*
X171333809Y-93122380D02*
X171333809Y-92122380D01*
X171238571Y-92265238D01*
X171143333Y-92360476D01*
X171048095Y-92408095D01*
X168024285Y-112022380D02*
X168690952Y-112022380D01*
X168262380Y-113022380D01*
X169500476Y-112355714D02*
X169500476Y-113022380D01*
X169262380Y-111974761D02*
X169024285Y-112689047D01*
X169643333Y-112689047D01*
X170024285Y-113022380D02*
X170024285Y-112022380D01*
X170024285Y-112498571D02*
X170595714Y-112498571D01*
X170595714Y-113022380D02*
X170595714Y-112022380D01*
X171643333Y-112927142D02*
X171595714Y-112974761D01*
X171452857Y-113022380D01*
X171357619Y-113022380D01*
X171214761Y-112974761D01*
X171119523Y-112879523D01*
X171071904Y-112784285D01*
X171024285Y-112593809D01*
X171024285Y-112450952D01*
X171071904Y-112260476D01*
X171119523Y-112165238D01*
X171214761Y-112070000D01*
X171357619Y-112022380D01*
X171452857Y-112022380D01*
X171595714Y-112070000D01*
X171643333Y-112117619D01*
X172595714Y-113022380D02*
X172024285Y-113022380D01*
X172310000Y-113022380D02*
X172310000Y-112022380D01*
X172214761Y-112165238D01*
X172119523Y-112260476D01*
X172024285Y-112308095D01*
X173452857Y-112355714D02*
X173452857Y-113022380D01*
X173214761Y-111974761D02*
X172976666Y-112689047D01*
X173595714Y-112689047D01*
%TO.C,U3*%
X122048095Y-89122380D02*
X122048095Y-89931904D01*
X122095714Y-90027142D01*
X122143333Y-90074761D01*
X122238571Y-90122380D01*
X122429047Y-90122380D01*
X122524285Y-90074761D01*
X122571904Y-90027142D01*
X122619523Y-89931904D01*
X122619523Y-89122380D01*
X123000476Y-89122380D02*
X123619523Y-89122380D01*
X123286190Y-89503333D01*
X123429047Y-89503333D01*
X123524285Y-89550952D01*
X123571904Y-89598571D01*
X123619523Y-89693809D01*
X123619523Y-89931904D01*
X123571904Y-90027142D01*
X123524285Y-90074761D01*
X123429047Y-90122380D01*
X123143333Y-90122380D01*
X123048095Y-90074761D01*
X123000476Y-90027142D01*
X120167142Y-109022380D02*
X120833809Y-109022380D01*
X120405238Y-110022380D01*
X121643333Y-109355714D02*
X121643333Y-110022380D01*
X121405238Y-108974761D02*
X121167142Y-109689047D01*
X121786190Y-109689047D01*
X122643333Y-110022380D02*
X122167142Y-110022380D01*
X122167142Y-109022380D01*
X122929047Y-109974761D02*
X123071904Y-110022380D01*
X123310000Y-110022380D01*
X123405238Y-109974761D01*
X123452857Y-109927142D01*
X123500476Y-109831904D01*
X123500476Y-109736666D01*
X123452857Y-109641428D01*
X123405238Y-109593809D01*
X123310000Y-109546190D01*
X123119523Y-109498571D01*
X123024285Y-109450952D01*
X122976666Y-109403333D01*
X122929047Y-109308095D01*
X122929047Y-109212857D01*
X122976666Y-109117619D01*
X123024285Y-109070000D01*
X123119523Y-109022380D01*
X123357619Y-109022380D01*
X123500476Y-109070000D01*
X124119523Y-109022380D02*
X124214761Y-109022380D01*
X124310000Y-109070000D01*
X124357619Y-109117619D01*
X124405238Y-109212857D01*
X124452857Y-109403333D01*
X124452857Y-109641428D01*
X124405238Y-109831904D01*
X124357619Y-109927142D01*
X124310000Y-109974761D01*
X124214761Y-110022380D01*
X124119523Y-110022380D01*
X124024285Y-109974761D01*
X123976666Y-109927142D01*
X123929047Y-109831904D01*
X123881428Y-109641428D01*
X123881428Y-109403333D01*
X123929047Y-109212857D01*
X123976666Y-109117619D01*
X124024285Y-109070000D01*
X124119523Y-109022380D01*
X125024285Y-109450952D02*
X124929047Y-109403333D01*
X124881428Y-109355714D01*
X124833809Y-109260476D01*
X124833809Y-109212857D01*
X124881428Y-109117619D01*
X124929047Y-109070000D01*
X125024285Y-109022380D01*
X125214761Y-109022380D01*
X125310000Y-109070000D01*
X125357619Y-109117619D01*
X125405238Y-109212857D01*
X125405238Y-109260476D01*
X125357619Y-109355714D01*
X125310000Y-109403333D01*
X125214761Y-109450952D01*
X125024285Y-109450952D01*
X124929047Y-109498571D01*
X124881428Y-109546190D01*
X124833809Y-109641428D01*
X124833809Y-109831904D01*
X124881428Y-109927142D01*
X124929047Y-109974761D01*
X125024285Y-110022380D01*
X125214761Y-110022380D01*
X125310000Y-109974761D01*
X125357619Y-109927142D01*
X125405238Y-109831904D01*
X125405238Y-109641428D01*
X125357619Y-109546190D01*
X125310000Y-109498571D01*
X125214761Y-109450952D01*
%TO.C,U4*%
X122048095Y-62122380D02*
X122048095Y-62931904D01*
X122095714Y-63027142D01*
X122143333Y-63074761D01*
X122238571Y-63122380D01*
X122429047Y-63122380D01*
X122524285Y-63074761D01*
X122571904Y-63027142D01*
X122619523Y-62931904D01*
X122619523Y-62122380D01*
X123524285Y-62455714D02*
X123524285Y-63122380D01*
X123286190Y-62074761D02*
X123048095Y-62789047D01*
X123667142Y-62789047D01*
X120167142Y-82022380D02*
X120833809Y-82022380D01*
X120405238Y-83022380D01*
X121643333Y-82355714D02*
X121643333Y-83022380D01*
X121405238Y-81974761D02*
X121167142Y-82689047D01*
X121786190Y-82689047D01*
X122643333Y-83022380D02*
X122167142Y-83022380D01*
X122167142Y-82022380D01*
X122929047Y-82974761D02*
X123071904Y-83022380D01*
X123310000Y-83022380D01*
X123405238Y-82974761D01*
X123452857Y-82927142D01*
X123500476Y-82831904D01*
X123500476Y-82736666D01*
X123452857Y-82641428D01*
X123405238Y-82593809D01*
X123310000Y-82546190D01*
X123119523Y-82498571D01*
X123024285Y-82450952D01*
X122976666Y-82403333D01*
X122929047Y-82308095D01*
X122929047Y-82212857D01*
X122976666Y-82117619D01*
X123024285Y-82070000D01*
X123119523Y-82022380D01*
X123357619Y-82022380D01*
X123500476Y-82070000D01*
X124119523Y-82022380D02*
X124214761Y-82022380D01*
X124310000Y-82070000D01*
X124357619Y-82117619D01*
X124405238Y-82212857D01*
X124452857Y-82403333D01*
X124452857Y-82641428D01*
X124405238Y-82831904D01*
X124357619Y-82927142D01*
X124310000Y-82974761D01*
X124214761Y-83022380D01*
X124119523Y-83022380D01*
X124024285Y-82974761D01*
X123976666Y-82927142D01*
X123929047Y-82831904D01*
X123881428Y-82641428D01*
X123881428Y-82403333D01*
X123929047Y-82212857D01*
X123976666Y-82117619D01*
X124024285Y-82070000D01*
X124119523Y-82022380D01*
X125024285Y-82450952D02*
X124929047Y-82403333D01*
X124881428Y-82355714D01*
X124833809Y-82260476D01*
X124833809Y-82212857D01*
X124881428Y-82117619D01*
X124929047Y-82070000D01*
X125024285Y-82022380D01*
X125214761Y-82022380D01*
X125310000Y-82070000D01*
X125357619Y-82117619D01*
X125405238Y-82212857D01*
X125405238Y-82260476D01*
X125357619Y-82355714D01*
X125310000Y-82403333D01*
X125214761Y-82450952D01*
X125024285Y-82450952D01*
X124929047Y-82498571D01*
X124881428Y-82546190D01*
X124833809Y-82641428D01*
X124833809Y-82831904D01*
X124881428Y-82927142D01*
X124929047Y-82974761D01*
X125024285Y-83022380D01*
X125214761Y-83022380D01*
X125310000Y-82974761D01*
X125357619Y-82927142D01*
X125405238Y-82831904D01*
X125405238Y-82641428D01*
X125357619Y-82546190D01*
X125310000Y-82498571D01*
X125214761Y-82450952D01*
%TO.C,J1*%
X180902380Y-66583333D02*
X181616666Y-66583333D01*
X181759523Y-66630952D01*
X181854761Y-66726190D01*
X181902380Y-66869047D01*
X181902380Y-66964285D01*
X181902380Y-65583333D02*
X181902380Y-66154761D01*
X181902380Y-65869047D02*
X180902380Y-65869047D01*
X181045238Y-65964285D01*
X181140476Y-66059523D01*
X181188095Y-66154761D01*
%TO.C,J2*%
X180902380Y-83583333D02*
X181616666Y-83583333D01*
X181759523Y-83630952D01*
X181854761Y-83726190D01*
X181902380Y-83869047D01*
X181902380Y-83964285D01*
X180997619Y-83154761D02*
X180950000Y-83107142D01*
X180902380Y-83011904D01*
X180902380Y-82773809D01*
X180950000Y-82678571D01*
X180997619Y-82630952D01*
X181092857Y-82583333D01*
X181188095Y-82583333D01*
X181330952Y-82630952D01*
X181902380Y-83202380D01*
X181902380Y-82583333D01*
%TO.C,J3*%
X110002380Y-100083333D02*
X110716666Y-100083333D01*
X110859523Y-100130952D01*
X110954761Y-100226190D01*
X111002380Y-100369047D01*
X111002380Y-100464285D01*
X110002380Y-99702380D02*
X110002380Y-99083333D01*
X110383333Y-99416666D01*
X110383333Y-99273809D01*
X110430952Y-99178571D01*
X110478571Y-99130952D01*
X110573809Y-99083333D01*
X110811904Y-99083333D01*
X110907142Y-99130952D01*
X110954761Y-99178571D01*
X111002380Y-99273809D01*
X111002380Y-99559523D01*
X110954761Y-99654761D01*
X110907142Y-99702380D01*
%TO.C,J4*%
X180902380Y-98083333D02*
X181616666Y-98083333D01*
X181759523Y-98130952D01*
X181854761Y-98226190D01*
X181902380Y-98369047D01*
X181902380Y-98464285D01*
X181235714Y-97178571D02*
X181902380Y-97178571D01*
X180854761Y-97416666D02*
X181569047Y-97654761D01*
X181569047Y-97035714D01*
%TO.C,J5*%
X110002380Y-66083333D02*
X110716666Y-66083333D01*
X110859523Y-66130952D01*
X110954761Y-66226190D01*
X111002380Y-66369047D01*
X111002380Y-66464285D01*
X110002380Y-65130952D02*
X110002380Y-65607142D01*
X110478571Y-65654761D01*
X110430952Y-65607142D01*
X110383333Y-65511904D01*
X110383333Y-65273809D01*
X110430952Y-65178571D01*
X110478571Y-65130952D01*
X110573809Y-65083333D01*
X110811904Y-65083333D01*
X110907142Y-65130952D01*
X110954761Y-65178571D01*
X111002380Y-65273809D01*
X111002380Y-65511904D01*
X110954761Y-65607142D01*
X110907142Y-65654761D01*
%TO.C,J7*%
X110002380Y-83083333D02*
X110716666Y-83083333D01*
X110859523Y-83130952D01*
X110954761Y-83226190D01*
X111002380Y-83369047D01*
X111002380Y-83464285D01*
X110002380Y-82702380D02*
X110002380Y-82035714D01*
X111002380Y-82464285D01*
%TO.C,J8*%
X180902380Y-113583333D02*
X181616666Y-113583333D01*
X181759523Y-113630952D01*
X181854761Y-113726190D01*
X181902380Y-113869047D01*
X181902380Y-113964285D01*
X181330952Y-112964285D02*
X181283333Y-113059523D01*
X181235714Y-113107142D01*
X181140476Y-113154761D01*
X181092857Y-113154761D01*
X180997619Y-113107142D01*
X180950000Y-113059523D01*
X180902380Y-112964285D01*
X180902380Y-112773809D01*
X180950000Y-112678571D01*
X180997619Y-112630952D01*
X181092857Y-112583333D01*
X181140476Y-112583333D01*
X181235714Y-112630952D01*
X181283333Y-112678571D01*
X181330952Y-112773809D01*
X181330952Y-112964285D01*
X181378571Y-113059523D01*
X181426190Y-113107142D01*
X181521428Y-113154761D01*
X181711904Y-113154761D01*
X181807142Y-113107142D01*
X181854761Y-113059523D01*
X181902380Y-112964285D01*
X181902380Y-112773809D01*
X181854761Y-112678571D01*
X181807142Y-112630952D01*
X181711904Y-112583333D01*
X181521428Y-112583333D01*
X181426190Y-112630952D01*
X181378571Y-112678571D01*
X181330952Y-112773809D01*
%TO.C,J9*%
X138416666Y-123002380D02*
X138416666Y-123716666D01*
X138369047Y-123859523D01*
X138273809Y-123954761D01*
X138130952Y-124002380D01*
X138035714Y-124002380D01*
X138940476Y-124002380D02*
X139130952Y-124002380D01*
X139226190Y-123954761D01*
X139273809Y-123907142D01*
X139369047Y-123764285D01*
X139416666Y-123573809D01*
X139416666Y-123192857D01*
X139369047Y-123097619D01*
X139321428Y-123050000D01*
X139226190Y-123002380D01*
X139035714Y-123002380D01*
X138940476Y-123050000D01*
X138892857Y-123097619D01*
X138845238Y-123192857D01*
X138845238Y-123430952D01*
X138892857Y-123526190D01*
X138940476Y-123573809D01*
X139035714Y-123621428D01*
X139226190Y-123621428D01*
X139321428Y-123573809D01*
X139369047Y-123526190D01*
X139416666Y-123430952D01*
%TO.C,J10*%
X151940476Y-123002380D02*
X151940476Y-123716666D01*
X151892857Y-123859523D01*
X151797619Y-123954761D01*
X151654761Y-124002380D01*
X151559523Y-124002380D01*
X152940476Y-124002380D02*
X152369047Y-124002380D01*
X152654761Y-124002380D02*
X152654761Y-123002380D01*
X152559523Y-123145238D01*
X152464285Y-123240476D01*
X152369047Y-123288095D01*
X153559523Y-123002380D02*
X153654761Y-123002380D01*
X153750000Y-123050000D01*
X153797619Y-123097619D01*
X153845238Y-123192857D01*
X153892857Y-123383333D01*
X153892857Y-123621428D01*
X153845238Y-123811904D01*
X153797619Y-123907142D01*
X153750000Y-123954761D01*
X153654761Y-124002380D01*
X153559523Y-124002380D01*
X153464285Y-123954761D01*
X153416666Y-123907142D01*
X153369047Y-123811904D01*
X153321428Y-123621428D01*
X153321428Y-123383333D01*
X153369047Y-123192857D01*
X153416666Y-123097619D01*
X153464285Y-123050000D01*
X153559523Y-123002380D01*
%TO.C,H1*%
X101238095Y-47602380D02*
X101238095Y-46602380D01*
X101238095Y-47078571D02*
X101809523Y-47078571D01*
X101809523Y-47602380D02*
X101809523Y-46602380D01*
X102809523Y-47602380D02*
X102238095Y-47602380D01*
X102523809Y-47602380D02*
X102523809Y-46602380D01*
X102428571Y-46745238D01*
X102333333Y-46840476D01*
X102238095Y-46888095D01*
%TO.C,H2*%
X101238095Y-121602380D02*
X101238095Y-120602380D01*
X101238095Y-121078571D02*
X101809523Y-121078571D01*
X101809523Y-121602380D02*
X101809523Y-120602380D01*
X102238095Y-120697619D02*
X102285714Y-120650000D01*
X102380952Y-120602380D01*
X102619047Y-120602380D01*
X102714285Y-120650000D01*
X102761904Y-120697619D01*
X102809523Y-120792857D01*
X102809523Y-120888095D01*
X102761904Y-121030952D01*
X102190476Y-121602380D01*
X102809523Y-121602380D01*
%TO.C,H3*%
X188238095Y-121602380D02*
X188238095Y-120602380D01*
X188238095Y-121078571D02*
X188809523Y-121078571D01*
X188809523Y-121602380D02*
X188809523Y-120602380D01*
X189190476Y-120602380D02*
X189809523Y-120602380D01*
X189476190Y-120983333D01*
X189619047Y-120983333D01*
X189714285Y-121030952D01*
X189761904Y-121078571D01*
X189809523Y-121173809D01*
X189809523Y-121411904D01*
X189761904Y-121507142D01*
X189714285Y-121554761D01*
X189619047Y-121602380D01*
X189333333Y-121602380D01*
X189238095Y-121554761D01*
X189190476Y-121507142D01*
%TO.C,H4*%
X188238095Y-47602380D02*
X188238095Y-46602380D01*
X188238095Y-47078571D02*
X188809523Y-47078571D01*
X188809523Y-47602380D02*
X188809523Y-46602380D01*
X189714285Y-46935714D02*
X189714285Y-47602380D01*
X189476190Y-46554761D02*
X189238095Y-47269047D01*
X189857142Y-47269047D01*
D13*
%TO.C,JP2*%
X144670000Y-104410000D02*
X147330000Y-104410000D01*
X144670000Y-99270000D02*
X144670000Y-104410000D01*
X144670000Y-98000000D02*
X144670000Y-96670000D01*
X147330000Y-99270000D02*
X147330000Y-104410000D01*
X144670000Y-96670000D02*
X146000000Y-96670000D01*
X144670000Y-99270000D02*
X147330000Y-99270000D01*
%TO.C,J6*%
X109750000Y-108150000D02*
X108500000Y-108150000D01*
X109750000Y-109400000D02*
X109750000Y-108150000D01*
X104250000Y-120300000D02*
X104250000Y-114750000D01*
X107200000Y-120300000D02*
X104250000Y-120300000D01*
X107200000Y-121050000D02*
X107200000Y-120300000D01*
X104250000Y-109200000D02*
X104250000Y-114750000D01*
X107200000Y-109200000D02*
X104250000Y-109200000D01*
X107200000Y-108450000D02*
X107200000Y-109200000D01*
X109450000Y-121050000D02*
X109450000Y-119250000D01*
X108700000Y-121050000D02*
X109450000Y-121050000D01*
X108700000Y-119250000D02*
X108700000Y-121050000D01*
X109450000Y-119250000D02*
X108700000Y-119250000D01*
X109450000Y-110250000D02*
X109450000Y-108450000D01*
X108700000Y-110250000D02*
X109450000Y-110250000D01*
X108700000Y-108450000D02*
X108700000Y-110250000D01*
X109450000Y-108450000D02*
X108700000Y-108450000D01*
X109450000Y-117750000D02*
X109450000Y-111750000D01*
X108700000Y-117750000D02*
X109450000Y-117750000D01*
X108700000Y-111750000D02*
X108700000Y-117750000D01*
X109450000Y-111750000D02*
X108700000Y-111750000D01*
X109460000Y-121060000D02*
X109460000Y-108440000D01*
X103490000Y-121060000D02*
X109460000Y-121060000D01*
X103490000Y-108440000D02*
X103490000Y-121060000D01*
X109460000Y-108440000D02*
X103490000Y-108440000D01*
%TO.C,U2*%
X173060000Y-63670000D02*
X171810000Y-63670000D01*
X173060000Y-81570000D02*
X173060000Y-63670000D01*
X168560000Y-81570000D02*
X173060000Y-81570000D01*
X168560000Y-63670000D02*
X168560000Y-81570000D01*
X169810000Y-63670000D02*
X168560000Y-63670000D01*
X169810000Y-63670000D02*
G75*
G03*
X171810000Y-63670000I1000000J0D01*
G01*
%TO.C,J11*%
X110670000Y-57330000D02*
X110670000Y-56000000D01*
X112000000Y-57330000D02*
X110670000Y-57330000D01*
X110670000Y-54730000D02*
X110670000Y-52130000D01*
X113270000Y-54730000D02*
X110670000Y-54730000D01*
X113270000Y-57330000D02*
X113270000Y-54730000D01*
X110670000Y-52130000D02*
X143810000Y-52130000D01*
X113270000Y-57330000D02*
X143810000Y-57330000D01*
X143810000Y-57330000D02*
X143810000Y-52130000D01*
%TO.C,J12*%
X181810000Y-57330000D02*
X181810000Y-52130000D01*
X151270000Y-57330000D02*
X181810000Y-57330000D01*
X148670000Y-52130000D02*
X181810000Y-52130000D01*
X151270000Y-57330000D02*
X151270000Y-54730000D01*
X151270000Y-54730000D02*
X148670000Y-54730000D01*
X148670000Y-54730000D02*
X148670000Y-52130000D01*
X150000000Y-57330000D02*
X148670000Y-57330000D01*
X148670000Y-57330000D02*
X148670000Y-56000000D01*
%TO.C,JP1*%
X144670000Y-89410000D02*
X147330000Y-89410000D01*
X144670000Y-84270000D02*
X144670000Y-89410000D01*
X147330000Y-84270000D02*
X147330000Y-89410000D01*
X144670000Y-84270000D02*
X147330000Y-84270000D01*
X144670000Y-83000000D02*
X144670000Y-81670000D01*
X144670000Y-81670000D02*
X146000000Y-81670000D01*
%TO.C,R1*%
X154080000Y-94450000D02*
X157920000Y-94450000D01*
X157920000Y-94450000D02*
X157920000Y-84310000D01*
X157920000Y-84310000D02*
X154080000Y-84310000D01*
X154080000Y-84310000D02*
X154080000Y-94450000D01*
X156000000Y-95560000D02*
X156000000Y-94450000D01*
X156000000Y-83200000D02*
X156000000Y-84310000D01*
%TO.C,U1*%
X173060000Y-93670000D02*
X171810000Y-93670000D01*
X173060000Y-111570000D02*
X173060000Y-93670000D01*
X168560000Y-111570000D02*
X173060000Y-111570000D01*
X168560000Y-93670000D02*
X168560000Y-111570000D01*
X169810000Y-93670000D02*
X168560000Y-93670000D01*
X169810000Y-93670000D02*
G75*
G03*
X171810000Y-93670000I1000000J0D01*
G01*
%TO.C,U3*%
X121810000Y-90670000D02*
X120560000Y-90670000D01*
X120560000Y-90670000D02*
X120560000Y-108570000D01*
X120560000Y-108570000D02*
X125060000Y-108570000D01*
X125060000Y-108570000D02*
X125060000Y-90670000D01*
X125060000Y-90670000D02*
X123810000Y-90670000D01*
X121810000Y-90670000D02*
G75*
G03*
X123810000Y-90670000I1000000J0D01*
G01*
%TO.C,U4*%
X121810000Y-63670000D02*
X120560000Y-63670000D01*
X120560000Y-63670000D02*
X120560000Y-81570000D01*
X120560000Y-81570000D02*
X125060000Y-81570000D01*
X125060000Y-81570000D02*
X125060000Y-63670000D01*
X125060000Y-63670000D02*
X123810000Y-63670000D01*
X121810000Y-63670000D02*
G75*
G03*
X123810000Y-63670000I1000000J0D01*
G01*
%TO.C,J1*%
X182540000Y-72560000D02*
X188510000Y-72560000D01*
X188510000Y-72560000D02*
X188510000Y-59940000D01*
X188510000Y-59940000D02*
X182540000Y-59940000D01*
X182540000Y-59940000D02*
X182540000Y-72560000D01*
X182550000Y-69250000D02*
X183300000Y-69250000D01*
X183300000Y-69250000D02*
X183300000Y-63250000D01*
X183300000Y-63250000D02*
X182550000Y-63250000D01*
X182550000Y-63250000D02*
X182550000Y-69250000D01*
X182550000Y-72550000D02*
X183300000Y-72550000D01*
X183300000Y-72550000D02*
X183300000Y-70750000D01*
X183300000Y-70750000D02*
X182550000Y-70750000D01*
X182550000Y-70750000D02*
X182550000Y-72550000D01*
X182550000Y-61750000D02*
X183300000Y-61750000D01*
X183300000Y-61750000D02*
X183300000Y-59950000D01*
X183300000Y-59950000D02*
X182550000Y-59950000D01*
X182550000Y-59950000D02*
X182550000Y-61750000D01*
X184800000Y-72550000D02*
X184800000Y-71800000D01*
X184800000Y-71800000D02*
X187750000Y-71800000D01*
X187750000Y-71800000D02*
X187750000Y-66250000D01*
X184800000Y-59950000D02*
X184800000Y-60700000D01*
X184800000Y-60700000D02*
X187750000Y-60700000D01*
X187750000Y-60700000D02*
X187750000Y-66250000D01*
X182250000Y-71600000D02*
X182250000Y-72850000D01*
X182250000Y-72850000D02*
X183500000Y-72850000D01*
%TO.C,J2*%
X182250000Y-89850000D02*
X183500000Y-89850000D01*
X182250000Y-88600000D02*
X182250000Y-89850000D01*
X187750000Y-77700000D02*
X187750000Y-83250000D01*
X184800000Y-77700000D02*
X187750000Y-77700000D01*
X184800000Y-76950000D02*
X184800000Y-77700000D01*
X187750000Y-88800000D02*
X187750000Y-83250000D01*
X184800000Y-88800000D02*
X187750000Y-88800000D01*
X184800000Y-89550000D02*
X184800000Y-88800000D01*
X182550000Y-76950000D02*
X182550000Y-78750000D01*
X183300000Y-76950000D02*
X182550000Y-76950000D01*
X183300000Y-78750000D02*
X183300000Y-76950000D01*
X182550000Y-78750000D02*
X183300000Y-78750000D01*
X182550000Y-87750000D02*
X182550000Y-89550000D01*
X183300000Y-87750000D02*
X182550000Y-87750000D01*
X183300000Y-89550000D02*
X183300000Y-87750000D01*
X182550000Y-89550000D02*
X183300000Y-89550000D01*
X182550000Y-80250000D02*
X182550000Y-86250000D01*
X183300000Y-80250000D02*
X182550000Y-80250000D01*
X183300000Y-86250000D02*
X183300000Y-80250000D01*
X182550000Y-86250000D02*
X183300000Y-86250000D01*
X182540000Y-76940000D02*
X182540000Y-89560000D01*
X188510000Y-76940000D02*
X182540000Y-76940000D01*
X188510000Y-89560000D02*
X188510000Y-76940000D01*
X182540000Y-89560000D02*
X188510000Y-89560000D01*
%TO.C,J3*%
X109750000Y-93150000D02*
X108500000Y-93150000D01*
X109750000Y-94400000D02*
X109750000Y-93150000D01*
X104250000Y-105300000D02*
X104250000Y-99750000D01*
X107200000Y-105300000D02*
X104250000Y-105300000D01*
X107200000Y-106050000D02*
X107200000Y-105300000D01*
X104250000Y-94200000D02*
X104250000Y-99750000D01*
X107200000Y-94200000D02*
X104250000Y-94200000D01*
X107200000Y-93450000D02*
X107200000Y-94200000D01*
X109450000Y-106050000D02*
X109450000Y-104250000D01*
X108700000Y-106050000D02*
X109450000Y-106050000D01*
X108700000Y-104250000D02*
X108700000Y-106050000D01*
X109450000Y-104250000D02*
X108700000Y-104250000D01*
X109450000Y-95250000D02*
X109450000Y-93450000D01*
X108700000Y-95250000D02*
X109450000Y-95250000D01*
X108700000Y-93450000D02*
X108700000Y-95250000D01*
X109450000Y-93450000D02*
X108700000Y-93450000D01*
X109450000Y-102750000D02*
X109450000Y-96750000D01*
X108700000Y-102750000D02*
X109450000Y-102750000D01*
X108700000Y-96750000D02*
X108700000Y-102750000D01*
X109450000Y-96750000D02*
X108700000Y-96750000D01*
X109460000Y-106060000D02*
X109460000Y-93440000D01*
X103490000Y-106060000D02*
X109460000Y-106060000D01*
X103490000Y-93440000D02*
X103490000Y-106060000D01*
X109460000Y-93440000D02*
X103490000Y-93440000D01*
%TO.C,J4*%
X182250000Y-101850000D02*
X183500000Y-101850000D01*
X182250000Y-100600000D02*
X182250000Y-101850000D01*
X187750000Y-94700000D02*
X187750000Y-97750000D01*
X184800000Y-94700000D02*
X187750000Y-94700000D01*
X184800000Y-93950000D02*
X184800000Y-94700000D01*
X187750000Y-100800000D02*
X187750000Y-97750000D01*
X184800000Y-100800000D02*
X187750000Y-100800000D01*
X184800000Y-101550000D02*
X184800000Y-100800000D01*
X182550000Y-93950000D02*
X182550000Y-95750000D01*
X183300000Y-93950000D02*
X182550000Y-93950000D01*
X183300000Y-95750000D02*
X183300000Y-93950000D01*
X182550000Y-95750000D02*
X183300000Y-95750000D01*
X182550000Y-99750000D02*
X182550000Y-101550000D01*
X183300000Y-99750000D02*
X182550000Y-99750000D01*
X183300000Y-101550000D02*
X183300000Y-99750000D01*
X182550000Y-101550000D02*
X183300000Y-101550000D01*
X182550000Y-97250000D02*
X182550000Y-98250000D01*
X183300000Y-97250000D02*
X182550000Y-97250000D01*
X183300000Y-98250000D02*
X183300000Y-97250000D01*
X182550000Y-98250000D02*
X183300000Y-98250000D01*
X182540000Y-93940000D02*
X182540000Y-101560000D01*
X188510000Y-93940000D02*
X182540000Y-93940000D01*
X188510000Y-101560000D02*
X188510000Y-93940000D01*
X182540000Y-101560000D02*
X188510000Y-101560000D01*
%TO.C,J5*%
X109750000Y-59150000D02*
X108500000Y-59150000D01*
X109750000Y-60400000D02*
X109750000Y-59150000D01*
X104250000Y-71300000D02*
X104250000Y-65750000D01*
X107200000Y-71300000D02*
X104250000Y-71300000D01*
X107200000Y-72050000D02*
X107200000Y-71300000D01*
X104250000Y-60200000D02*
X104250000Y-65750000D01*
X107200000Y-60200000D02*
X104250000Y-60200000D01*
X107200000Y-59450000D02*
X107200000Y-60200000D01*
X109450000Y-72050000D02*
X109450000Y-70250000D01*
X108700000Y-72050000D02*
X109450000Y-72050000D01*
X108700000Y-70250000D02*
X108700000Y-72050000D01*
X109450000Y-70250000D02*
X108700000Y-70250000D01*
X109450000Y-61250000D02*
X109450000Y-59450000D01*
X108700000Y-61250000D02*
X109450000Y-61250000D01*
X108700000Y-59450000D02*
X108700000Y-61250000D01*
X109450000Y-59450000D02*
X108700000Y-59450000D01*
X109450000Y-68750000D02*
X109450000Y-62750000D01*
X108700000Y-68750000D02*
X109450000Y-68750000D01*
X108700000Y-62750000D02*
X108700000Y-68750000D01*
X109450000Y-62750000D02*
X108700000Y-62750000D01*
X109460000Y-72060000D02*
X109460000Y-59440000D01*
X103490000Y-72060000D02*
X109460000Y-72060000D01*
X103490000Y-59440000D02*
X103490000Y-72060000D01*
X109460000Y-59440000D02*
X103490000Y-59440000D01*
%TO.C,J7*%
X109460000Y-76440000D02*
X103490000Y-76440000D01*
X103490000Y-76440000D02*
X103490000Y-89060000D01*
X103490000Y-89060000D02*
X109460000Y-89060000D01*
X109460000Y-89060000D02*
X109460000Y-76440000D01*
X109450000Y-79750000D02*
X108700000Y-79750000D01*
X108700000Y-79750000D02*
X108700000Y-85750000D01*
X108700000Y-85750000D02*
X109450000Y-85750000D01*
X109450000Y-85750000D02*
X109450000Y-79750000D01*
X109450000Y-76450000D02*
X108700000Y-76450000D01*
X108700000Y-76450000D02*
X108700000Y-78250000D01*
X108700000Y-78250000D02*
X109450000Y-78250000D01*
X109450000Y-78250000D02*
X109450000Y-76450000D01*
X109450000Y-87250000D02*
X108700000Y-87250000D01*
X108700000Y-87250000D02*
X108700000Y-89050000D01*
X108700000Y-89050000D02*
X109450000Y-89050000D01*
X109450000Y-89050000D02*
X109450000Y-87250000D01*
X107200000Y-76450000D02*
X107200000Y-77200000D01*
X107200000Y-77200000D02*
X104250000Y-77200000D01*
X104250000Y-77200000D02*
X104250000Y-82750000D01*
X107200000Y-89050000D02*
X107200000Y-88300000D01*
X107200000Y-88300000D02*
X104250000Y-88300000D01*
X104250000Y-88300000D02*
X104250000Y-82750000D01*
X109750000Y-77400000D02*
X109750000Y-76150000D01*
X109750000Y-76150000D02*
X108500000Y-76150000D01*
%TO.C,J8*%
X182540000Y-119560000D02*
X188510000Y-119560000D01*
X188510000Y-119560000D02*
X188510000Y-106940000D01*
X188510000Y-106940000D02*
X182540000Y-106940000D01*
X182540000Y-106940000D02*
X182540000Y-119560000D01*
X182550000Y-116250000D02*
X183300000Y-116250000D01*
X183300000Y-116250000D02*
X183300000Y-110250000D01*
X183300000Y-110250000D02*
X182550000Y-110250000D01*
X182550000Y-110250000D02*
X182550000Y-116250000D01*
X182550000Y-119550000D02*
X183300000Y-119550000D01*
X183300000Y-119550000D02*
X183300000Y-117750000D01*
X183300000Y-117750000D02*
X182550000Y-117750000D01*
X182550000Y-117750000D02*
X182550000Y-119550000D01*
X182550000Y-108750000D02*
X183300000Y-108750000D01*
X183300000Y-108750000D02*
X183300000Y-106950000D01*
X183300000Y-106950000D02*
X182550000Y-106950000D01*
X182550000Y-106950000D02*
X182550000Y-108750000D01*
X184800000Y-119550000D02*
X184800000Y-118800000D01*
X184800000Y-118800000D02*
X187750000Y-118800000D01*
X187750000Y-118800000D02*
X187750000Y-113250000D01*
X184800000Y-106950000D02*
X184800000Y-107700000D01*
X184800000Y-107700000D02*
X187750000Y-107700000D01*
X187750000Y-107700000D02*
X187750000Y-113250000D01*
X182250000Y-118600000D02*
X182250000Y-119850000D01*
X182250000Y-119850000D02*
X183500000Y-119850000D01*
%TO.C,J9*%
X142560000Y-122460000D02*
X142560000Y-116490000D01*
X142560000Y-116490000D02*
X134940000Y-116490000D01*
X134940000Y-116490000D02*
X134940000Y-122460000D01*
X134940000Y-122460000D02*
X142560000Y-122460000D01*
X139250000Y-122450000D02*
X139250000Y-121700000D01*
X139250000Y-121700000D02*
X138250000Y-121700000D01*
X138250000Y-121700000D02*
X138250000Y-122450000D01*
X138250000Y-122450000D02*
X139250000Y-122450000D01*
X142550000Y-122450000D02*
X142550000Y-121700000D01*
X142550000Y-121700000D02*
X140750000Y-121700000D01*
X140750000Y-121700000D02*
X140750000Y-122450000D01*
X140750000Y-122450000D02*
X142550000Y-122450000D01*
X136750000Y-122450000D02*
X136750000Y-121700000D01*
X136750000Y-121700000D02*
X134950000Y-121700000D01*
X134950000Y-121700000D02*
X134950000Y-122450000D01*
X134950000Y-122450000D02*
X136750000Y-122450000D01*
X142550000Y-120200000D02*
X141800000Y-120200000D01*
X141800000Y-120200000D02*
X141800000Y-117250000D01*
X141800000Y-117250000D02*
X138750000Y-117250000D01*
X134950000Y-120200000D02*
X135700000Y-120200000D01*
X135700000Y-120200000D02*
X135700000Y-117250000D01*
X135700000Y-117250000D02*
X138750000Y-117250000D01*
X141600000Y-122750000D02*
X142850000Y-122750000D01*
X142850000Y-122750000D02*
X142850000Y-121500000D01*
%TO.C,J10*%
X156850000Y-122750000D02*
X156850000Y-121500000D01*
X155600000Y-122750000D02*
X156850000Y-122750000D01*
X149700000Y-117250000D02*
X152750000Y-117250000D01*
X149700000Y-120200000D02*
X149700000Y-117250000D01*
X148950000Y-120200000D02*
X149700000Y-120200000D01*
X155800000Y-117250000D02*
X152750000Y-117250000D01*
X155800000Y-120200000D02*
X155800000Y-117250000D01*
X156550000Y-120200000D02*
X155800000Y-120200000D01*
X148950000Y-122450000D02*
X150750000Y-122450000D01*
X148950000Y-121700000D02*
X148950000Y-122450000D01*
X150750000Y-121700000D02*
X148950000Y-121700000D01*
X150750000Y-122450000D02*
X150750000Y-121700000D01*
X154750000Y-122450000D02*
X156550000Y-122450000D01*
X154750000Y-121700000D02*
X154750000Y-122450000D01*
X156550000Y-121700000D02*
X154750000Y-121700000D01*
X156550000Y-122450000D02*
X156550000Y-121700000D01*
X152250000Y-122450000D02*
X153250000Y-122450000D01*
X152250000Y-121700000D02*
X152250000Y-122450000D01*
X153250000Y-121700000D02*
X152250000Y-121700000D01*
X153250000Y-122450000D02*
X153250000Y-121700000D01*
X148940000Y-122460000D02*
X156560000Y-122460000D01*
X148940000Y-116490000D02*
X148940000Y-122460000D01*
X156560000Y-116490000D02*
X148940000Y-116490000D01*
X156560000Y-122460000D02*
X156560000Y-116490000D01*
%TD*%
M02*
