%TF.GenerationSoftware,KiCad,Pcbnew,5.1.10-88a1d61d58~90~ubuntu20.04.1*%
%TF.CreationDate,2022-03-25T12:28:49+00:00*%
%TF.ProjectId,blanking_board,626c616e-6b69-46e6-975f-626f6172642e,rev?*%
%TF.SameCoordinates,Original*%
%TF.FileFunction,Soldermask,Bot*%
%TF.FilePolarity,Negative*%
%FSLAX46Y46*%
G04 Gerber Fmt 4.6, Leading zero omitted, Abs format (unit mm)*
G04 Created by KiCad (PCBNEW 5.1.10-88a1d61d58~90~ubuntu20.04.1) date 2022-03-25 12:28:49*
%MOMM*%
%LPD*%
G01*
G04 APERTURE LIST*
%ADD10O,1.950000X1.700000*%
%ADD11O,2.400000X1.600000*%
%ADD12R,2.400000X1.600000*%
%ADD13O,1.700000X1.700000*%
%ADD14R,1.700000X1.700000*%
%ADD15C,2.400000*%
%ADD16O,2.400000X2.400000*%
%ADD17O,2.000000X1.700000*%
%ADD18O,1.700000X2.000000*%
%ADD19C,3.200000*%
G04 APERTURE END LIST*
%TO.C,J6*%
G36*
G01*
X106275000Y-110150000D02*
X107725000Y-110150000D01*
G75*
G02*
X107975000Y-110400000I0J-250000D01*
G01*
X107975000Y-111600000D01*
G75*
G02*
X107725000Y-111850000I-250000J0D01*
G01*
X106275000Y-111850000D01*
G75*
G02*
X106025000Y-111600000I0J250000D01*
G01*
X106025000Y-110400000D01*
G75*
G02*
X106275000Y-110150000I250000J0D01*
G01*
G37*
D10*
X107000000Y-113500000D03*
X107000000Y-116000000D03*
X107000000Y-118500000D03*
%TD*%
D11*
%TO.C,U2*%
X174620000Y-65000000D03*
X167000000Y-80240000D03*
X174620000Y-67540000D03*
X167000000Y-77700000D03*
X174620000Y-70080000D03*
X167000000Y-75160000D03*
X174620000Y-72620000D03*
X167000000Y-72620000D03*
X174620000Y-75160000D03*
X167000000Y-70080000D03*
X174620000Y-77700000D03*
X167000000Y-67540000D03*
X174620000Y-80240000D03*
D12*
X167000000Y-65000000D03*
%TD*%
D13*
%TO.C,J11*%
X142480000Y-53460000D03*
X142480000Y-56000000D03*
X139940000Y-53460000D03*
X139940000Y-56000000D03*
X137400000Y-53460000D03*
X137400000Y-56000000D03*
X134860000Y-53460000D03*
X134860000Y-56000000D03*
X132320000Y-53460000D03*
X132320000Y-56000000D03*
X129780000Y-53460000D03*
X129780000Y-56000000D03*
X127240000Y-53460000D03*
X127240000Y-56000000D03*
X124700000Y-53460000D03*
X124700000Y-56000000D03*
X122160000Y-53460000D03*
X122160000Y-56000000D03*
X119620000Y-53460000D03*
X119620000Y-56000000D03*
X117080000Y-53460000D03*
X117080000Y-56000000D03*
X114540000Y-53460000D03*
X114540000Y-56000000D03*
X112000000Y-53460000D03*
D14*
X112000000Y-56000000D03*
%TD*%
%TO.C,J12*%
X150000000Y-56000000D03*
D13*
X150000000Y-53460000D03*
X152540000Y-56000000D03*
X152540000Y-53460000D03*
X155080000Y-56000000D03*
X155080000Y-53460000D03*
X157620000Y-56000000D03*
X157620000Y-53460000D03*
X160160000Y-56000000D03*
X160160000Y-53460000D03*
X162700000Y-56000000D03*
X162700000Y-53460000D03*
X165240000Y-56000000D03*
X165240000Y-53460000D03*
X167780000Y-56000000D03*
X167780000Y-53460000D03*
X170320000Y-56000000D03*
X170320000Y-53460000D03*
X172860000Y-56000000D03*
X172860000Y-53460000D03*
X175400000Y-56000000D03*
X175400000Y-53460000D03*
X177940000Y-56000000D03*
X177940000Y-53460000D03*
X180480000Y-56000000D03*
X180480000Y-53460000D03*
%TD*%
D14*
%TO.C,JP1*%
X146000000Y-83000000D03*
D13*
X146000000Y-85540000D03*
X146000000Y-88080000D03*
%TD*%
D15*
%TO.C,R1*%
X156000000Y-97000000D03*
D16*
X156000000Y-81760000D03*
%TD*%
D11*
%TO.C,U1*%
X174620000Y-95000000D03*
X167000000Y-110240000D03*
X174620000Y-97540000D03*
X167000000Y-107700000D03*
X174620000Y-100080000D03*
X167000000Y-105160000D03*
X174620000Y-102620000D03*
X167000000Y-102620000D03*
X174620000Y-105160000D03*
X167000000Y-100080000D03*
X174620000Y-107700000D03*
X167000000Y-97540000D03*
X174620000Y-110240000D03*
D12*
X167000000Y-95000000D03*
%TD*%
%TO.C,U3*%
X119000000Y-92000000D03*
D11*
X126620000Y-107240000D03*
X119000000Y-94540000D03*
X126620000Y-104700000D03*
X119000000Y-97080000D03*
X126620000Y-102160000D03*
X119000000Y-99620000D03*
X126620000Y-99620000D03*
X119000000Y-102160000D03*
X126620000Y-97080000D03*
X119000000Y-104700000D03*
X126620000Y-94540000D03*
X119000000Y-107240000D03*
X126620000Y-92000000D03*
%TD*%
D12*
%TO.C,U4*%
X119000000Y-65000000D03*
D11*
X126620000Y-80240000D03*
X119000000Y-67540000D03*
X126620000Y-77700000D03*
X119000000Y-70080000D03*
X126620000Y-75160000D03*
X119000000Y-72620000D03*
X126620000Y-72620000D03*
X119000000Y-75160000D03*
X126620000Y-70080000D03*
X119000000Y-77700000D03*
X126620000Y-67540000D03*
X119000000Y-80240000D03*
X126620000Y-65000000D03*
%TD*%
D10*
%TO.C,J1*%
X185000000Y-62500000D03*
X185000000Y-65000000D03*
X185000000Y-67500000D03*
G36*
G01*
X185725000Y-70850000D02*
X184275000Y-70850000D01*
G75*
G02*
X184025000Y-70600000I0J250000D01*
G01*
X184025000Y-69400000D01*
G75*
G02*
X184275000Y-69150000I250000J0D01*
G01*
X185725000Y-69150000D01*
G75*
G02*
X185975000Y-69400000I0J-250000D01*
G01*
X185975000Y-70600000D01*
G75*
G02*
X185725000Y-70850000I-250000J0D01*
G01*
G37*
%TD*%
%TO.C,J2*%
G36*
G01*
X185725000Y-87850000D02*
X184275000Y-87850000D01*
G75*
G02*
X184025000Y-87600000I0J250000D01*
G01*
X184025000Y-86400000D01*
G75*
G02*
X184275000Y-86150000I250000J0D01*
G01*
X185725000Y-86150000D01*
G75*
G02*
X185975000Y-86400000I0J-250000D01*
G01*
X185975000Y-87600000D01*
G75*
G02*
X185725000Y-87850000I-250000J0D01*
G01*
G37*
X185000000Y-84500000D03*
X185000000Y-82000000D03*
X185000000Y-79500000D03*
%TD*%
%TO.C,J3*%
G36*
G01*
X106275000Y-95150000D02*
X107725000Y-95150000D01*
G75*
G02*
X107975000Y-95400000I0J-250000D01*
G01*
X107975000Y-96600000D01*
G75*
G02*
X107725000Y-96850000I-250000J0D01*
G01*
X106275000Y-96850000D01*
G75*
G02*
X106025000Y-96600000I0J250000D01*
G01*
X106025000Y-95400000D01*
G75*
G02*
X106275000Y-95150000I250000J0D01*
G01*
G37*
X107000000Y-98500000D03*
X107000000Y-101000000D03*
X107000000Y-103500000D03*
%TD*%
%TO.C,J4*%
G36*
G01*
X185750000Y-99850000D02*
X184250000Y-99850000D01*
G75*
G02*
X184000000Y-99600000I0J250000D01*
G01*
X184000000Y-98400000D01*
G75*
G02*
X184250000Y-98150000I250000J0D01*
G01*
X185750000Y-98150000D01*
G75*
G02*
X186000000Y-98400000I0J-250000D01*
G01*
X186000000Y-99600000D01*
G75*
G02*
X185750000Y-99850000I-250000J0D01*
G01*
G37*
D17*
X185000000Y-96500000D03*
%TD*%
%TO.C,J5*%
G36*
G01*
X106275000Y-61150000D02*
X107725000Y-61150000D01*
G75*
G02*
X107975000Y-61400000I0J-250000D01*
G01*
X107975000Y-62600000D01*
G75*
G02*
X107725000Y-62850000I-250000J0D01*
G01*
X106275000Y-62850000D01*
G75*
G02*
X106025000Y-62600000I0J250000D01*
G01*
X106025000Y-61400000D01*
G75*
G02*
X106275000Y-61150000I250000J0D01*
G01*
G37*
D10*
X107000000Y-64500000D03*
X107000000Y-67000000D03*
X107000000Y-69500000D03*
%TD*%
%TO.C,J7*%
X107000000Y-86500000D03*
X107000000Y-84000000D03*
X107000000Y-81500000D03*
G36*
G01*
X106275000Y-78150000D02*
X107725000Y-78150000D01*
G75*
G02*
X107975000Y-78400000I0J-250000D01*
G01*
X107975000Y-79600000D01*
G75*
G02*
X107725000Y-79850000I-250000J0D01*
G01*
X106275000Y-79850000D01*
G75*
G02*
X106025000Y-79600000I0J250000D01*
G01*
X106025000Y-78400000D01*
G75*
G02*
X106275000Y-78150000I250000J0D01*
G01*
G37*
%TD*%
%TO.C,J8*%
X185000000Y-109500000D03*
X185000000Y-112000000D03*
X185000000Y-114500000D03*
G36*
G01*
X185725000Y-117850000D02*
X184275000Y-117850000D01*
G75*
G02*
X184025000Y-117600000I0J250000D01*
G01*
X184025000Y-116400000D01*
G75*
G02*
X184275000Y-116150000I250000J0D01*
G01*
X185725000Y-116150000D01*
G75*
G02*
X185975000Y-116400000I0J-250000D01*
G01*
X185975000Y-117600000D01*
G75*
G02*
X185725000Y-117850000I-250000J0D01*
G01*
G37*
%TD*%
D18*
%TO.C,J9*%
X137500000Y-120000000D03*
G36*
G01*
X140850000Y-119250000D02*
X140850000Y-120750000D01*
G75*
G02*
X140600000Y-121000000I-250000J0D01*
G01*
X139400000Y-121000000D01*
G75*
G02*
X139150000Y-120750000I0J250000D01*
G01*
X139150000Y-119250000D01*
G75*
G02*
X139400000Y-119000000I250000J0D01*
G01*
X140600000Y-119000000D01*
G75*
G02*
X140850000Y-119250000I0J-250000D01*
G01*
G37*
%TD*%
%TO.C,J10*%
G36*
G01*
X154850000Y-119250000D02*
X154850000Y-120750000D01*
G75*
G02*
X154600000Y-121000000I-250000J0D01*
G01*
X153400000Y-121000000D01*
G75*
G02*
X153150000Y-120750000I0J250000D01*
G01*
X153150000Y-119250000D01*
G75*
G02*
X153400000Y-119000000I250000J0D01*
G01*
X154600000Y-119000000D01*
G75*
G02*
X154850000Y-119250000I0J-250000D01*
G01*
G37*
X151500000Y-120000000D03*
%TD*%
D19*
%TO.C,H1*%
X102000000Y-51000000D03*
%TD*%
%TO.C,H2*%
X102000000Y-125000000D03*
%TD*%
%TO.C,H3*%
X189000000Y-125000000D03*
%TD*%
%TO.C,H4*%
X189000000Y-51000000D03*
%TD*%
M02*
